<svg version="1.1" baseProfile="full" width="500" height="200" xmlns="http://www.w3.org/2000/svg">
	<rect width="100%" height="100%" fill="gray" />
	<rect x = "0" y = "0" width = "500" height = "200" fill = "pink" stroke = "black" stroke-width = "1" />
	<rect x = "0" y = "0" width = "20" height = "50" fill = "purple" stroke = "black" stroke-width = "1" />
	<rect x = "20" y = "0" width = "20" height = "50" fill = "purple" stroke = "black" stroke-width = "1" />
	<rect x = "40" y = "0" width = "20" height = "50" fill = "purple" stroke = "black" stroke-width = "1" />
	<rect x = "60" y = "0" width = "20" height = "50" fill = "purple" stroke = "black" stroke-width = "1" />
	<rect x = "80" y = "0" width = "20" height = "50" fill = "purple" stroke = "black" stroke-width = "1" />
	<rect x = "100" y = "0" width = "20" height = "50" fill = "purple" stroke = "black" stroke-width = "1" />
	<rect x = "120" y = "0" width = "20" height = "50" fill = "purple" stroke = "black" stroke-width = "1" />
	<rect x = "140" y = "0" width = "20" height = "50" fill = "purple" stroke = "black" stroke-width = "1" />
	<rect x = "160" y = "0" width = "20" height = "50" fill = "purple" stroke = "black" stroke-width = "1" />
	<rect x = "180" y = "0" width = "20" height = "50" fill = "purple" stroke = "black" stroke-width = "1" />
	<rect x = "200" y = "0" width = "20" height = "50" fill = "purple" stroke = "black" stroke-width = "1" />
	<rect x = "220" y = "0" width = "20" height = "50" fill = "purple" stroke = "black" stroke-width = "1" />
	<rect x = "240" y = "0" width = "20" height = "50" fill = "purple" stroke = "black" stroke-width = "1" />
	<rect x = "260" y = "0" width = "20" height = "50" fill = "purple" stroke = "black" stroke-width = "1" />
	<rect x = "280" y = "0" width = "20" height = "50" fill = "purple" stroke = "black" stroke-width = "1" />
	<rect x = "300" y = "0" width = "20" height = "50" fill = "purple" stroke = "black" stroke-width = "1" />
	<rect x = "320" y = "0" width = "20" height = "50" fill = "purple" stroke = "black" stroke-width = "1" />
	<rect x = "340" y = "0" width = "20" height = "50" fill = "purple" stroke = "black" stroke-width = "1" />
	<rect x = "360" y = "0" width = "20" height = "50" fill = "purple" stroke = "black" stroke-width = "1" />
	<rect x = "380" y = "0" width = "20" height = "50" fill = "purple" stroke = "black" stroke-width = "1" />
	<rect x = "400" y = "0" width = "20" height = "50" fill = "purple" stroke = "black" stroke-width = "1" />
	<rect x = "420" y = "0" width = "20" height = "50" fill = "purple" stroke = "black" stroke-width = "1" />
	<rect x = "440" y = "0" width = "20" height = "50" fill = "purple" stroke = "black" stroke-width = "1" />
	<rect x = "460" y = "0" width = "20" height = "50" fill = "purple" stroke = "black" stroke-width = "1" />
	<rect x = "480" y = "0" width = "20" height = "50" fill = "purple" stroke = "black" stroke-width = "1" />
	<rect x = "0" y = "50" width = "20" height = "50" fill = "purple" stroke = "black" stroke-width = "1" />
	<rect x = "20" y = "50" width = "20" height = "50" fill = "purple" stroke = "black" stroke-width = "1" />
	<rect x = "40" y = "50" width = "20" height = "50" fill = "purple" stroke = "black" stroke-width = "1" />
	<rect x = "60" y = "50" width = "20" height = "50" fill = "purple" stroke = "black" stroke-width = "1" />
	<rect x = "80" y = "50" width = "20" height = "50" fill = "purple" stroke = "black" stroke-width = "1" />
	<rect x = "100" y = "50" width = "20" height = "50" fill = "purple" stroke = "black" stroke-width = "1" />
	<rect x = "120" y = "50" width = "20" height = "50" fill = "purple" stroke = "black" stroke-width = "1" />
	<rect x = "140" y = "50" width = "20" height = "50" fill = "purple" stroke = "black" stroke-width = "1" />
	<rect x = "160" y = "50" width = "20" height = "50" fill = "purple" stroke = "black" stroke-width = "1" />
	<rect x = "180" y = "50" width = "20" height = "50" fill = "purple" stroke = "black" stroke-width = "1" />
	<rect x = "200" y = "50" width = "20" height = "50" fill = "purple" stroke = "black" stroke-width = "1" />
	<rect x = "220" y = "50" width = "20" height = "50" fill = "purple" stroke = "black" stroke-width = "1" />
	<rect x = "240" y = "50" width = "20" height = "50" fill = "purple" stroke = "black" stroke-width = "1" />
	<rect x = "260" y = "50" width = "20" height = "50" fill = "purple" stroke = "black" stroke-width = "1" />
	<rect x = "280" y = "50" width = "20" height = "50" fill = "purple" stroke = "black" stroke-width = "1" />
	<rect x = "300" y = "50" width = "20" height = "50" fill = "purple" stroke = "black" stroke-width = "1" />
	<rect x = "320" y = "50" width = "20" height = "50" fill = "purple" stroke = "black" stroke-width = "1" />
	<rect x = "340" y = "50" width = "20" height = "50" fill = "purple" stroke = "black" stroke-width = "1" />
	<rect x = "360" y = "50" width = "20" height = "50" fill = "purple" stroke = "black" stroke-width = "1" />
	<rect x = "380" y = "50" width = "20" height = "50" fill = "purple" stroke = "black" stroke-width = "1" />
	<rect x = "400" y = "50" width = "20" height = "50" fill = "purple" stroke = "black" stroke-width = "1" />
	<rect x = "420" y = "50" width = "20" height = "50" fill = "purple" stroke = "black" stroke-width = "1" />
	<rect x = "440" y = "50" width = "20" height = "50" fill = "purple" stroke = "black" stroke-width = "1" />
	<rect x = "460" y = "50" width = "20" height = "50" fill = "purple" stroke = "black" stroke-width = "1" />
	<rect x = "480" y = "50" width = "20" height = "50" fill = "purple" stroke = "black" stroke-width = "1" />
	<rect x = "0" y = "100" width = "20" height = "50" fill = "purple" stroke = "black" stroke-width = "1" />
	<rect x = "20" y = "100" width = "20" height = "50" fill = "purple" stroke = "black" stroke-width = "1" />
	<rect x = "40" y = "100" width = "20" height = "50" fill = "purple" stroke = "black" stroke-width = "1" />
	<rect x = "60" y = "100" width = "20" height = "50" fill = "purple" stroke = "black" stroke-width = "1" />
	<rect x = "80" y = "100" width = "20" height = "50" fill = "purple" stroke = "black" stroke-width = "1" />
	<rect x = "100" y = "100" width = "20" height = "50" fill = "purple" stroke = "black" stroke-width = "1" />
	<rect x = "120" y = "100" width = "20" height = "50" fill = "purple" stroke = "black" stroke-width = "1" />
	<rect x = "140" y = "100" width = "20" height = "50" fill = "purple" stroke = "black" stroke-width = "1" />
	<rect x = "160" y = "100" width = "20" height = "50" fill = "purple" stroke = "black" stroke-width = "1" />
	<rect x = "180" y = "100" width = "20" height = "50" fill = "purple" stroke = "black" stroke-width = "1" />
	<rect x = "200" y = "100" width = "20" height = "50" fill = "purple" stroke = "black" stroke-width = "1" />
	<rect x = "220" y = "100" width = "20" height = "50" fill = "purple" stroke = "black" stroke-width = "1" />
	<rect x = "240" y = "100" width = "20" height = "50" fill = "purple" stroke = "black" stroke-width = "1" />
	<rect x = "260" y = "100" width = "20" height = "50" fill = "purple" stroke = "black" stroke-width = "1" />
	<rect x = "280" y = "100" width = "20" height = "50" fill = "purple" stroke = "black" stroke-width = "1" />
	<rect x = "300" y = "100" width = "20" height = "50" fill = "purple" stroke = "black" stroke-width = "1" />
	<rect x = "320" y = "100" width = "20" height = "50" fill = "purple" stroke = "black" stroke-width = "1" />
	<rect x = "340" y = "100" width = "20" height = "50" fill = "purple" stroke = "black" stroke-width = "1" />
	<rect x = "360" y = "100" width = "20" height = "50" fill = "purple" stroke = "black" stroke-width = "1" />
	<rect x = "380" y = "100" width = "20" height = "50" fill = "purple" stroke = "black" stroke-width = "1" />
	<rect x = "400" y = "100" width = "20" height = "50" fill = "purple" stroke = "black" stroke-width = "1" />
	<rect x = "420" y = "100" width = "20" height = "50" fill = "purple" stroke = "black" stroke-width = "1" />
	<rect x = "440" y = "100" width = "20" height = "50" fill = "purple" stroke = "black" stroke-width = "1" />
	<rect x = "460" y = "100" width = "20" height = "50" fill = "purple" stroke = "black" stroke-width = "1" />
	<rect x = "480" y = "100" width = "20" height = "50" fill = "purple" stroke = "black" stroke-width = "1" />
	<rect x = "0" y = "150" width = "20" height = "50" fill = "purple" stroke = "black" stroke-width = "1" />
	<rect x = "20" y = "150" width = "20" height = "50" fill = "purple" stroke = "black" stroke-width = "1" />
	<rect x = "40" y = "150" width = "20" height = "50" fill = "purple" stroke = "black" stroke-width = "1" />
	<rect x = "60" y = "150" width = "20" height = "50" fill = "purple" stroke = "black" stroke-width = "1" />
	<rect x = "80" y = "150" width = "20" height = "50" fill = "purple" stroke = "black" stroke-width = "1" />
	<rect x = "100" y = "150" width = "20" height = "50" fill = "purple" stroke = "black" stroke-width = "1" />
	<rect x = "120" y = "150" width = "20" height = "50" fill = "purple" stroke = "black" stroke-width = "1" />
	<rect x = "140" y = "150" width = "20" height = "50" fill = "purple" stroke = "black" stroke-width = "1" />
	<rect x = "160" y = "150" width = "20" height = "50" fill = "purple" stroke = "black" stroke-width = "1" />
	<rect x = "180" y = "150" width = "20" height = "50" fill = "purple" stroke = "black" stroke-width = "1" />
	<rect x = "200" y = "150" width = "20" height = "50" fill = "purple" stroke = "black" stroke-width = "1" />
	<rect x = "220" y = "150" width = "20" height = "50" fill = "purple" stroke = "black" stroke-width = "1" />
	<rect x = "240" y = "150" width = "20" height = "50" fill = "purple" stroke = "black" stroke-width = "1" />
	<rect x = "260" y = "150" width = "20" height = "50" fill = "purple" stroke = "black" stroke-width = "1" />
	<rect x = "280" y = "150" width = "20" height = "50" fill = "purple" stroke = "black" stroke-width = "1" />
	<rect x = "300" y = "150" width = "20" height = "50" fill = "purple" stroke = "black" stroke-width = "1" />
	<rect x = "320" y = "150" width = "20" height = "50" fill = "purple" stroke = "black" stroke-width = "1" />
	<rect x = "340" y = "150" width = "20" height = "50" fill = "purple" stroke = "black" stroke-width = "1" />
	<rect x = "360" y = "150" width = "20" height = "50" fill = "purple" stroke = "black" stroke-width = "1" />
	<rect x = "380" y = "150" width = "20" height = "50" fill = "purple" stroke = "black" stroke-width = "1" />
	<rect x = "400" y = "150" width = "20" height = "50" fill = "purple" stroke = "black" stroke-width = "1" />
	<rect x = "420" y = "150" width = "20" height = "50" fill = "purple" stroke = "black" stroke-width = "1" />
	<rect x = "440" y = "150" width = "20" height = "50" fill = "purple" stroke = "black" stroke-width = "1" />
	<rect x = "460" y = "150" width = "20" height = "50" fill = "purple" stroke = "black" stroke-width = "1" />
	<rect x = "480" y = "150" width = "20" height = "50" fill = "purple" stroke = "black" stroke-width = "1" />
</svg>