<svg version="1.1" baseProfile="full" width="400" height="346.41" xmlns="http://www.w3.org/2000/svg">
	<rect width="100%" height="100%" fill="gray" />
	<polygon points = "0,346.41 200,0 400,346.41" fill = "pink" stroke = "black" stroke-width = "1" />
	<polygon points = "0,346.41 25,303.109 50,346.41" fill = "purple" stroke = "black" stroke-width = "1" />
	<polygon points = "50,346.41 75,303.109 100,346.41" fill = "purple" stroke = "black" stroke-width = "1" />
	<polygon points = "100,346.41 125,303.109 150,346.41" fill = "purple" stroke = "black" stroke-width = "1" />
	<polygon points = "150,346.41 175,303.109 200,346.41" fill = "purple" stroke = "black" stroke-width = "1" />
	<polygon points = "200,346.41 225,303.109 250,346.41" fill = "purple" stroke = "black" stroke-width = "1" />
	<polygon points = "250,346.41 275,303.109 300,346.41" fill = "purple" stroke = "black" stroke-width = "1" />
	<polygon points = "300,346.41 325,303.109 350,346.41" fill = "purple" stroke = "black" stroke-width = "1" />
	<polygon points = "350,346.41 375,303.109 400,346.41" fill = "purple" stroke = "black" stroke-width = "1" />
	<polygon points = "25,303.109 50,259.808 75,303.109" fill = "purple" stroke = "black" stroke-width = "1" />
	<polygon points = "75,303.109 100,259.808 125,303.109" fill = "purple" stroke = "black" stroke-width = "1" />
	<polygon points = "125,303.109 150,259.808 175,303.109" fill = "purple" stroke = "black" stroke-width = "1" />
	<polygon points = "175,303.109 200,259.808 225,303.109" fill = "purple" stroke = "black" stroke-width = "1" />
	<polygon points = "225,303.109 250,259.808 275,303.109" fill = "purple" stroke = "black" stroke-width = "1" />
	<polygon points = "275,303.109 300,259.808 325,303.109" fill = "purple" stroke = "black" stroke-width = "1" />
	<polygon points = "325,303.109 350,259.808 375,303.109" fill = "purple" stroke = "black" stroke-width = "1" />
	<polygon points = "50,259.808 75,216.506 100,259.808" fill = "purple" stroke = "black" stroke-width = "1" />
	<polygon points = "100,259.808 125,216.506 150,259.808" fill = "purple" stroke = "black" stroke-width = "1" />
	<polygon points = "150,259.808 175,216.506 200,259.808" fill = "purple" stroke = "black" stroke-width = "1" />
	<polygon points = "200,259.808 225,216.506 250,259.808" fill = "purple" stroke = "black" stroke-width = "1" />
	<polygon points = "250,259.808 275,216.506 300,259.808" fill = "purple" stroke = "black" stroke-width = "1" />
	<polygon points = "300,259.808 325,216.506 350,259.808" fill = "purple" stroke = "black" stroke-width = "1" />
	<polygon points = "75,216.506 100,173.205 125,216.506" fill = "purple" stroke = "black" stroke-width = "1" />
	<polygon points = "125,216.506 150,173.205 175,216.506" fill = "purple" stroke = "black" stroke-width = "1" />
	<polygon points = "175,216.506 200,173.205 225,216.506" fill = "purple" stroke = "black" stroke-width = "1" />
	<polygon points = "225,216.506 250,173.205 275,216.506" fill = "purple" stroke = "black" stroke-width = "1" />
	<polygon points = "275,216.506 300,173.205 325,216.506" fill = "purple" stroke = "black" stroke-width = "1" />
	<polygon points = "100,173.205 125,129.904 150,173.205" fill = "purple" stroke = "black" stroke-width = "1" />
	<polygon points = "150,173.205 175,129.904 200,173.205" fill = "purple" stroke = "black" stroke-width = "1" />
	<polygon points = "200,173.205 225,129.904 250,173.205" fill = "purple" stroke = "black" stroke-width = "1" />
	<polygon points = "250,173.205 275,129.904 300,173.205" fill = "purple" stroke = "black" stroke-width = "1" />
	<polygon points = "125,129.904 150,86.6025 175,129.904" fill = "purple" stroke = "black" stroke-width = "1" />
	<polygon points = "175,129.904 200,86.6025 225,129.904" fill = "purple" stroke = "black" stroke-width = "1" />
	<polygon points = "225,129.904 250,86.6025 275,129.904" fill = "purple" stroke = "black" stroke-width = "1" />
	<polygon points = "150,86.6025 175,43.3013 200,86.6025" fill = "purple" stroke = "black" stroke-width = "1" />
	<polygon points = "200,86.6025 225,43.3013 250,86.6025" fill = "purple" stroke = "black" stroke-width = "1" />
	<polygon points = "25,303.109 50,346.41 75,303.109" fill = "purple" stroke = "black" stroke-width = "1" />
	<polygon points = "75,303.109 100,346.41 125,303.109" fill = "purple" stroke = "black" stroke-width = "1" />
	<polygon points = "125,303.109 150,346.41 175,303.109" fill = "purple" stroke = "black" stroke-width = "1" />
	<polygon points = "175,303.109 200,346.41 225,303.109" fill = "purple" stroke = "black" stroke-width = "1" />
	<polygon points = "225,303.109 250,346.41 275,303.109" fill = "purple" stroke = "black" stroke-width = "1" />
	<polygon points = "275,303.109 300,346.41 325,303.109" fill = "purple" stroke = "black" stroke-width = "1" />
	<polygon points = "325,303.109 350,346.41 375,303.109" fill = "purple" stroke = "black" stroke-width = "1" />
	<polygon points = "50,259.808 75,303.109 100,259.808" fill = "purple" stroke = "black" stroke-width = "1" />
	<polygon points = "100,259.808 125,303.109 150,259.808" fill = "purple" stroke = "black" stroke-width = "1" />
	<polygon points = "150,259.808 175,303.109 200,259.808" fill = "purple" stroke = "black" stroke-width = "1" />
	<polygon points = "200,259.808 225,303.109 250,259.808" fill = "purple" stroke = "black" stroke-width = "1" />
	<polygon points = "250,259.808 275,303.109 300,259.808" fill = "purple" stroke = "black" stroke-width = "1" />
	<polygon points = "300,259.808 325,303.109 350,259.808" fill = "purple" stroke = "black" stroke-width = "1" />
	<polygon points = "75,216.506 100,259.808 125,216.506" fill = "purple" stroke = "black" stroke-width = "1" />
	<polygon points = "125,216.506 150,259.808 175,216.506" fill = "purple" stroke = "black" stroke-width = "1" />
	<polygon points = "175,216.506 200,259.808 225,216.506" fill = "purple" stroke = "black" stroke-width = "1" />
	<polygon points = "225,216.506 250,259.808 275,216.506" fill = "purple" stroke = "black" stroke-width = "1" />
	<polygon points = "275,216.506 300,259.808 325,216.506" fill = "purple" stroke = "black" stroke-width = "1" />
	<polygon points = "100,173.205 125,216.506 150,173.205" fill = "purple" stroke = "black" stroke-width = "1" />
	<polygon points = "150,173.205 175,216.506 200,173.205" fill = "purple" stroke = "black" stroke-width = "1" />
	<polygon points = "200,173.205 225,216.506 250,173.205" fill = "purple" stroke = "black" stroke-width = "1" />
	<polygon points = "250,173.205 275,216.506 300,173.205" fill = "purple" stroke = "black" stroke-width = "1" />
	<polygon points = "125,129.904 150,173.205 175,129.904" fill = "purple" stroke = "black" stroke-width = "1" />
	<polygon points = "175,129.904 200,173.205 225,129.904" fill = "purple" stroke = "black" stroke-width = "1" />
	<polygon points = "225,129.904 250,173.205 275,129.904" fill = "purple" stroke = "black" stroke-width = "1" />
	<polygon points = "150,86.6025 175,129.904 200,86.6025" fill = "purple" stroke = "black" stroke-width = "1" />
	<polygon points = "200,86.6025 225,129.904 250,86.6025" fill = "purple" stroke = "black" stroke-width = "1" />
</svg>