<svg version="1.1" baseProfile="full" width="250" height="600" xmlns="http://www.w3.org/2000/svg">
	<rect width="100%" height="100%" fill="gray" />
	<rect x = "0" y = "0" width = "250" height = "600" fill = "pink" stroke = "black" stroke-width = "1" />
	<polygon points = "0,0 60,0 30,51.9615" fill = "purple" stroke = "black" stroke-width = "1" />
	<polygon points = "60,0 120,0 90,51.9615" fill = "purple" stroke = "black" stroke-width = "1" />
	<polygon points = "120,0 180,0 150,51.9615" fill = "purple" stroke = "black" stroke-width = "1" />
	<polygon points = "180,0 240,0 210,51.9615" fill = "purple" stroke = "black" stroke-width = "1" />
	<polygon points = "0,51.9615 60,51.9615 30,103.923" fill = "purple" stroke = "black" stroke-width = "1" />
	<polygon points = "60,51.9615 120,51.9615 90,103.923" fill = "purple" stroke = "black" stroke-width = "1" />
	<polygon points = "120,51.9615 180,51.9615 150,103.923" fill = "purple" stroke = "black" stroke-width = "1" />
	<polygon points = "180,51.9615 240,51.9615 210,103.923" fill = "purple" stroke = "black" stroke-width = "1" />
	<polygon points = "0,103.923 60,103.923 30,155.885" fill = "purple" stroke = "black" stroke-width = "1" />
	<polygon points = "60,103.923 120,103.923 90,155.885" fill = "purple" stroke = "black" stroke-width = "1" />
	<polygon points = "120,103.923 180,103.923 150,155.885" fill = "purple" stroke = "black" stroke-width = "1" />
	<polygon points = "180,103.923 240,103.923 210,155.885" fill = "purple" stroke = "black" stroke-width = "1" />
	<polygon points = "0,155.885 60,155.885 30,207.846" fill = "purple" stroke = "black" stroke-width = "1" />
	<polygon points = "60,155.885 120,155.885 90,207.846" fill = "purple" stroke = "black" stroke-width = "1" />
	<polygon points = "120,155.885 180,155.885 150,207.846" fill = "purple" stroke = "black" stroke-width = "1" />
	<polygon points = "180,155.885 240,155.885 210,207.846" fill = "purple" stroke = "black" stroke-width = "1" />
	<polygon points = "0,207.846 60,207.846 30,259.808" fill = "purple" stroke = "black" stroke-width = "1" />
	<polygon points = "60,207.846 120,207.846 90,259.808" fill = "purple" stroke = "black" stroke-width = "1" />
	<polygon points = "120,207.846 180,207.846 150,259.808" fill = "purple" stroke = "black" stroke-width = "1" />
	<polygon points = "180,207.846 240,207.846 210,259.808" fill = "purple" stroke = "black" stroke-width = "1" />
	<polygon points = "0,259.808 60,259.808 30,311.769" fill = "purple" stroke = "black" stroke-width = "1" />
	<polygon points = "60,259.808 120,259.808 90,311.769" fill = "purple" stroke = "black" stroke-width = "1" />
	<polygon points = "120,259.808 180,259.808 150,311.769" fill = "purple" stroke = "black" stroke-width = "1" />
	<polygon points = "180,259.808 240,259.808 210,311.769" fill = "purple" stroke = "black" stroke-width = "1" />
	<polygon points = "0,311.769 60,311.769 30,363.731" fill = "purple" stroke = "black" stroke-width = "1" />
	<polygon points = "60,311.769 120,311.769 90,363.731" fill = "purple" stroke = "black" stroke-width = "1" />
	<polygon points = "120,311.769 180,311.769 150,363.731" fill = "purple" stroke = "black" stroke-width = "1" />
	<polygon points = "180,311.769 240,311.769 210,363.731" fill = "purple" stroke = "black" stroke-width = "1" />
	<polygon points = "0,363.731 60,363.731 30,415.692" fill = "purple" stroke = "black" stroke-width = "1" />
	<polygon points = "60,363.731 120,363.731 90,415.692" fill = "purple" stroke = "black" stroke-width = "1" />
	<polygon points = "120,363.731 180,363.731 150,415.692" fill = "purple" stroke = "black" stroke-width = "1" />
	<polygon points = "180,363.731 240,363.731 210,415.692" fill = "purple" stroke = "black" stroke-width = "1" />
	<polygon points = "0,415.692 60,415.692 30,467.654" fill = "purple" stroke = "black" stroke-width = "1" />
	<polygon points = "60,415.692 120,415.692 90,467.654" fill = "purple" stroke = "black" stroke-width = "1" />
	<polygon points = "120,415.692 180,415.692 150,467.654" fill = "purple" stroke = "black" stroke-width = "1" />
	<polygon points = "180,415.692 240,415.692 210,467.654" fill = "purple" stroke = "black" stroke-width = "1" />
	<polygon points = "0,467.654 60,467.654 30,519.615" fill = "purple" stroke = "black" stroke-width = "1" />
	<polygon points = "60,467.654 120,467.654 90,519.615" fill = "purple" stroke = "black" stroke-width = "1" />
	<polygon points = "120,467.654 180,467.654 150,519.615" fill = "purple" stroke = "black" stroke-width = "1" />
	<polygon points = "180,467.654 240,467.654 210,519.615" fill = "purple" stroke = "black" stroke-width = "1" />
	<polygon points = "0,519.615 60,519.615 30,571.577" fill = "purple" stroke = "black" stroke-width = "1" />
	<polygon points = "60,519.615 120,519.615 90,571.577" fill = "purple" stroke = "black" stroke-width = "1" />
	<polygon points = "120,519.615 180,519.615 150,571.577" fill = "purple" stroke = "black" stroke-width = "1" />
	<polygon points = "180,519.615 240,519.615 210,571.577" fill = "purple" stroke = "black" stroke-width = "1" />
	<polygon points = "30,51.9615 90,51.9615 60,0" fill = "purple" stroke = "black" stroke-width = "1" />
	<polygon points = "90,51.9615 150,51.9615 120,0" fill = "purple" stroke = "black" stroke-width = "1" />
	<polygon points = "150,51.9615 210,51.9615 180,0" fill = "purple" stroke = "black" stroke-width = "1" />
	<polygon points = "30,103.923 90,103.923 60,51.9615" fill = "purple" stroke = "black" stroke-width = "1" />
	<polygon points = "90,103.923 150,103.923 120,51.9615" fill = "purple" stroke = "black" stroke-width = "1" />
	<polygon points = "150,103.923 210,103.923 180,51.9615" fill = "purple" stroke = "black" stroke-width = "1" />
	<polygon points = "30,155.885 90,155.885 60,103.923" fill = "purple" stroke = "black" stroke-width = "1" />
	<polygon points = "90,155.885 150,155.885 120,103.923" fill = "purple" stroke = "black" stroke-width = "1" />
	<polygon points = "150,155.885 210,155.885 180,103.923" fill = "purple" stroke = "black" stroke-width = "1" />
	<polygon points = "30,207.846 90,207.846 60,155.885" fill = "purple" stroke = "black" stroke-width = "1" />
	<polygon points = "90,207.846 150,207.846 120,155.885" fill = "purple" stroke = "black" stroke-width = "1" />
	<polygon points = "150,207.846 210,207.846 180,155.885" fill = "purple" stroke = "black" stroke-width = "1" />
	<polygon points = "30,259.808 90,259.808 60,207.846" fill = "purple" stroke = "black" stroke-width = "1" />
	<polygon points = "90,259.808 150,259.808 120,207.846" fill = "purple" stroke = "black" stroke-width = "1" />
	<polygon points = "150,259.808 210,259.808 180,207.846" fill = "purple" stroke = "black" stroke-width = "1" />
	<polygon points = "30,311.769 90,311.769 60,259.808" fill = "purple" stroke = "black" stroke-width = "1" />
	<polygon points = "90,311.769 150,311.769 120,259.808" fill = "purple" stroke = "black" stroke-width = "1" />
	<polygon points = "150,311.769 210,311.769 180,259.808" fill = "purple" stroke = "black" stroke-width = "1" />
	<polygon points = "30,363.731 90,363.731 60,311.769" fill = "purple" stroke = "black" stroke-width = "1" />
	<polygon points = "90,363.731 150,363.731 120,311.769" fill = "purple" stroke = "black" stroke-width = "1" />
	<polygon points = "150,363.731 210,363.731 180,311.769" fill = "purple" stroke = "black" stroke-width = "1" />
	<polygon points = "30,415.692 90,415.692 60,363.731" fill = "purple" stroke = "black" stroke-width = "1" />
	<polygon points = "90,415.692 150,415.692 120,363.731" fill = "purple" stroke = "black" stroke-width = "1" />
	<polygon points = "150,415.692 210,415.692 180,363.731" fill = "purple" stroke = "black" stroke-width = "1" />
	<polygon points = "30,467.654 90,467.654 60,415.692" fill = "purple" stroke = "black" stroke-width = "1" />
	<polygon points = "90,467.654 150,467.654 120,415.692" fill = "purple" stroke = "black" stroke-width = "1" />
	<polygon points = "150,467.654 210,467.654 180,415.692" fill = "purple" stroke = "black" stroke-width = "1" />
	<polygon points = "30,519.615 90,519.615 60,467.654" fill = "purple" stroke = "black" stroke-width = "1" />
	<polygon points = "90,519.615 150,519.615 120,467.654" fill = "purple" stroke = "black" stroke-width = "1" />
	<polygon points = "150,519.615 210,519.615 180,467.654" fill = "purple" stroke = "black" stroke-width = "1" />
	<polygon points = "30,571.577 90,571.577 60,519.615" fill = "purple" stroke = "black" stroke-width = "1" />
	<polygon points = "90,571.577 150,571.577 120,519.615" fill = "purple" stroke = "black" stroke-width = "1" />
	<polygon points = "150,571.577 210,571.577 180,519.615" fill = "purple" stroke = "black" stroke-width = "1" />
</svg>