<svg version="1.1" baseProfile="full" width="1700" height="400" xmlns="http://www.w3.org/2000/svg">
	<rect width="100%" height="100%" fill="cyan" />
	<polyline points = "0,0 1700,0 1700,400 0,400 0,0 0,0 0,300 50,300 50,100 50,200 150,200 150,100 150,300 200,300 200,100 300,100 300,200 200,200 300,200 300,300 350,300 350,100 350,300 450,300 450,275 450,300 500,300 500,100 600,100 600,200 500,200 600,200 600,300 750,300 750,100 825,300 900,100 900,300 950,300 950,100 1050,100 1050,200 950,200 1050,200 1050,300 1100,300 1100,100 1200,300 1100,300 1250,300 1250,100 1350,100 1350,200 1250,200 1350,300 1400,300 1400,100 1400,300 1450,300 1450,100 1550,300 1450,300 1625,300 1600,300 1600,325 1625,325 1625,100 1600,100 1600,300" fill = "none" stroke = "magenta" stroke-width = "3" />
</svg>