<svg version="1.1" baseProfile="full" width="170" height="170" xmlns="http://www.w3.org/2000/svg">
	<rect width="100%" height="100%" fill="cyan" />
	<polyline points = "170,85 169.832,79.6628 169.33,74.3467 168.494,69.0726 167.33,63.8614 165.84,58.7336 164.031,53.7094 161.91,48.8088 159.486,44.0509 156.768,39.4547 153.766,35.0383 150.494,30.819 146.962,26.8135 143.187,23.0377 139.181,19.5064 134.962,16.2336 130.545,13.2321 125.949,10.5139 121.191,8.0897 116.291,5.969 111.266,4.1602 106.139,2.67043 100.927,1.50558 95.6533,0.67025 90.3372,0.167728 85,0 79.6628,0.167728 74.3467,0.67025 69.0726,1.50558 63.8614,2.67043 58.7336,4.1602 53.7094,5.969 48.8088,8.0897 44.0509,10.5139 39.4547,13.2321 35.0383,16.2336 30.819,19.5064 26.8135,23.0377 23.0377,26.8135 19.5064,30.819 16.2336,35.0383 13.2321,39.4547 10.5139,44.0509 8.0897,48.8088 5.969,53.7094 4.1602,58.7336 2.67043,63.8614 1.50558,69.0726 0.67025,74.3467 0.167728,79.6628 0,85 0.167728,90.3372 0.67025,95.6533 1.50558,100.927 2.67043,106.139 4.1602,111.266 5.969,116.291 8.0897,121.191 10.5139,125.949 13.2321,130.545 16.2336,134.962 19.5064,139.181 23.0377,143.187 26.8135,146.962 30.819,150.494 35.0383,153.766 39.4547,156.768 44.0509,159.486 48.8088,161.91 53.7094,164.031 58.7336,165.84 63.8614,167.33 69.0726,168.494 74.3467,169.33 79.6628,169.832 85,170 90.3372,169.832 95.6533,169.33 100.927,168.494 106.139,167.33 111.266,165.84 116.291,164.031 121.191,161.91 125.949,159.486 130.545,156.768 134.962,153.766 139.181,150.494 143.187,146.962 146.962,143.187 150.494,139.181 153.766,134.962 156.768,130.545 159.486,125.949 161.91,121.191 164.031,116.291 165.84,111.266 167.33,106.139 168.494,100.927 169.33,95.6533 169.832,90.3372 170,85" fill = "none" stroke = "magenta" stroke-width = "3" />
</svg>