<svg version="1.1" baseProfile="full" width="500" height="300" xmlns="http://www.w3.org/2000/svg">
	<rect width="100%" height="100%" fill="cyan" />
	<polyline points = "400,150 399.704,140.581 398.817,131.2 397.343,121.893 395.287,112.697 392.658,103.647 389.466,94.7813 385.724,86.1331 381.446,77.7369 376.649,69.626 371.353,61.8322 365.577,54.3864 359.345,47.3179 352.682,40.6547 345.614,34.423 338.168,28.6475 330.374,23.3508 322.263,18.554 313.867,14.2759 305.219,10.5335 296.353,7.34152 287.303,4.71253 278.107,2.65691 268.8,1.18279 259.419,0.295991 250,0 240.581,0.295991 231.2,1.18279 221.893,2.65691 212.697,4.71253 203.647,7.34152 194.781,10.5335 186.133,14.2759 177.737,18.554 169.626,23.3508 161.832,28.6475 154.386,34.423 147.318,40.6547 140.655,47.3179 134.423,54.3864 128.647,61.8322 123.351,69.626 118.554,77.7369 114.276,86.1331 110.534,94.7813 107.342,103.647 104.713,112.697 102.657,121.893 101.183,131.2 100.296,140.581 100,150 100.296,159.419 101.183,168.8 102.657,178.107 104.713,187.303 107.342,196.353 110.534,205.219 114.276,213.867 118.554,222.263 123.351,230.374 128.647,238.168 134.423,245.614 140.655,252.682 147.318,259.345 154.386,265.577 161.832,271.353 169.626,276.649 177.737,281.446 186.133,285.724 194.781,289.466 203.647,292.658 212.697,295.287 221.893,297.343 231.2,298.817 240.581,299.704 250,300 259.419,299.704 268.8,298.817 278.107,297.343 287.303,295.287 296.353,292.658 305.219,289.466 313.867,285.724 322.263,281.446 330.374,276.649 338.168,271.353 345.614,265.577 352.682,259.345 359.345,252.682 365.577,245.614 371.353,238.168 376.649,230.374 381.446,222.263 385.724,213.867 389.466,205.219 392.658,196.353 395.287,187.303 397.343,178.107 398.817,168.8 399.704,159.419 400,150 0,300 250,150 250,100 500,0 250,200 250,150" fill = "none" stroke = "magenta" stroke-width = "3" />
</svg>