<svg version="1.1" baseProfile="full" width="600" height="600" xmlns="http://www.w3.org/2000/svg">
	<rect width="100%" height="100%" fill="gray" />
	<circle cx = "300" cy = "300" r = "300" fill = "pink" stroke = "black" stroke-width = "1" />
	<rect x = "210" y = "20" width = "60" height = "35" fill = "purple" stroke = "black" stroke-width = "1" />
	<rect x = "270" y = "20" width = "60" height = "35" fill = "purple" stroke = "black" stroke-width = "1" />
	<rect x = "330" y = "20" width = "60" height = "35" fill = "purple" stroke = "black" stroke-width = "1" />
	<rect x = "150" y = "55" width = "60" height = "35" fill = "purple" stroke = "black" stroke-width = "1" />
	<rect x = "210" y = "55" width = "60" height = "35" fill = "purple" stroke = "black" stroke-width = "1" />
	<rect x = "270" y = "55" width = "60" height = "35" fill = "purple" stroke = "black" stroke-width = "1" />
	<rect x = "330" y = "55" width = "60" height = "35" fill = "purple" stroke = "black" stroke-width = "1" />
	<rect x = "390" y = "55" width = "60" height = "35" fill = "purple" stroke = "black" stroke-width = "1" />
	<rect x = "90" y = "90" width = "60" height = "35" fill = "purple" stroke = "black" stroke-width = "1" />
	<rect x = "150" y = "90" width = "60" height = "35" fill = "purple" stroke = "black" stroke-width = "1" />
	<rect x = "210" y = "90" width = "60" height = "35" fill = "purple" stroke = "black" stroke-width = "1" />
	<rect x = "270" y = "90" width = "60" height = "35" fill = "purple" stroke = "black" stroke-width = "1" />
	<rect x = "330" y = "90" width = "60" height = "35" fill = "purple" stroke = "black" stroke-width = "1" />
	<rect x = "390" y = "90" width = "60" height = "35" fill = "purple" stroke = "black" stroke-width = "1" />
	<rect x = "450" y = "90" width = "60" height = "35" fill = "purple" stroke = "black" stroke-width = "1" />
	<rect x = "90" y = "125" width = "60" height = "35" fill = "purple" stroke = "black" stroke-width = "1" />
	<rect x = "150" y = "125" width = "60" height = "35" fill = "purple" stroke = "black" stroke-width = "1" />
	<rect x = "210" y = "125" width = "60" height = "35" fill = "purple" stroke = "black" stroke-width = "1" />
	<rect x = "270" y = "125" width = "60" height = "35" fill = "purple" stroke = "black" stroke-width = "1" />
	<rect x = "330" y = "125" width = "60" height = "35" fill = "purple" stroke = "black" stroke-width = "1" />
	<rect x = "390" y = "125" width = "60" height = "35" fill = "purple" stroke = "black" stroke-width = "1" />
	<rect x = "450" y = "125" width = "60" height = "35" fill = "purple" stroke = "black" stroke-width = "1" />
	<rect x = "90" y = "160" width = "60" height = "35" fill = "purple" stroke = "black" stroke-width = "1" />
	<rect x = "150" y = "160" width = "60" height = "35" fill = "purple" stroke = "black" stroke-width = "1" />
	<rect x = "210" y = "160" width = "60" height = "35" fill = "purple" stroke = "black" stroke-width = "1" />
	<rect x = "270" y = "160" width = "60" height = "35" fill = "purple" stroke = "black" stroke-width = "1" />
	<rect x = "330" y = "160" width = "60" height = "35" fill = "purple" stroke = "black" stroke-width = "1" />
	<rect x = "390" y = "160" width = "60" height = "35" fill = "purple" stroke = "black" stroke-width = "1" />
	<rect x = "450" y = "160" width = "60" height = "35" fill = "purple" stroke = "black" stroke-width = "1" />
	<rect x = "30" y = "195" width = "60" height = "35" fill = "purple" stroke = "black" stroke-width = "1" />
	<rect x = "90" y = "195" width = "60" height = "35" fill = "purple" stroke = "black" stroke-width = "1" />
	<rect x = "150" y = "195" width = "60" height = "35" fill = "purple" stroke = "black" stroke-width = "1" />
	<rect x = "210" y = "195" width = "60" height = "35" fill = "purple" stroke = "black" stroke-width = "1" />
	<rect x = "270" y = "195" width = "60" height = "35" fill = "purple" stroke = "black" stroke-width = "1" />
	<rect x = "330" y = "195" width = "60" height = "35" fill = "purple" stroke = "black" stroke-width = "1" />
	<rect x = "390" y = "195" width = "60" height = "35" fill = "purple" stroke = "black" stroke-width = "1" />
	<rect x = "450" y = "195" width = "60" height = "35" fill = "purple" stroke = "black" stroke-width = "1" />
	<rect x = "510" y = "195" width = "60" height = "35" fill = "purple" stroke = "black" stroke-width = "1" />
	<rect x = "30" y = "230" width = "60" height = "35" fill = "purple" stroke = "black" stroke-width = "1" />
	<rect x = "90" y = "230" width = "60" height = "35" fill = "purple" stroke = "black" stroke-width = "1" />
	<rect x = "150" y = "230" width = "60" height = "35" fill = "purple" stroke = "black" stroke-width = "1" />
	<rect x = "210" y = "230" width = "60" height = "35" fill = "purple" stroke = "black" stroke-width = "1" />
	<rect x = "270" y = "230" width = "60" height = "35" fill = "purple" stroke = "black" stroke-width = "1" />
	<rect x = "330" y = "230" width = "60" height = "35" fill = "purple" stroke = "black" stroke-width = "1" />
	<rect x = "390" y = "230" width = "60" height = "35" fill = "purple" stroke = "black" stroke-width = "1" />
	<rect x = "450" y = "230" width = "60" height = "35" fill = "purple" stroke = "black" stroke-width = "1" />
	<rect x = "510" y = "230" width = "60" height = "35" fill = "purple" stroke = "black" stroke-width = "1" />
	<rect x = "30" y = "265" width = "60" height = "35" fill = "purple" stroke = "black" stroke-width = "1" />
	<rect x = "90" y = "265" width = "60" height = "35" fill = "purple" stroke = "black" stroke-width = "1" />
	<rect x = "150" y = "265" width = "60" height = "35" fill = "purple" stroke = "black" stroke-width = "1" />
	<rect x = "210" y = "265" width = "60" height = "35" fill = "purple" stroke = "black" stroke-width = "1" />
	<rect x = "270" y = "265" width = "60" height = "35" fill = "purple" stroke = "black" stroke-width = "1" />
	<rect x = "330" y = "265" width = "60" height = "35" fill = "purple" stroke = "black" stroke-width = "1" />
	<rect x = "390" y = "265" width = "60" height = "35" fill = "purple" stroke = "black" stroke-width = "1" />
	<rect x = "450" y = "265" width = "60" height = "35" fill = "purple" stroke = "black" stroke-width = "1" />
	<rect x = "510" y = "265" width = "60" height = "35" fill = "purple" stroke = "black" stroke-width = "1" />
	<rect x = "30" y = "300" width = "60" height = "35" fill = "purple" stroke = "black" stroke-width = "1" />
	<rect x = "90" y = "300" width = "60" height = "35" fill = "purple" stroke = "black" stroke-width = "1" />
	<rect x = "150" y = "300" width = "60" height = "35" fill = "purple" stroke = "black" stroke-width = "1" />
	<rect x = "210" y = "300" width = "60" height = "35" fill = "purple" stroke = "black" stroke-width = "1" />
	<rect x = "270" y = "300" width = "60" height = "35" fill = "purple" stroke = "black" stroke-width = "1" />
	<rect x = "330" y = "300" width = "60" height = "35" fill = "purple" stroke = "black" stroke-width = "1" />
	<rect x = "390" y = "300" width = "60" height = "35" fill = "purple" stroke = "black" stroke-width = "1" />
	<rect x = "450" y = "300" width = "60" height = "35" fill = "purple" stroke = "black" stroke-width = "1" />
	<rect x = "510" y = "300" width = "60" height = "35" fill = "purple" stroke = "black" stroke-width = "1" />
	<rect x = "30" y = "335" width = "60" height = "35" fill = "purple" stroke = "black" stroke-width = "1" />
	<rect x = "90" y = "335" width = "60" height = "35" fill = "purple" stroke = "black" stroke-width = "1" />
	<rect x = "150" y = "335" width = "60" height = "35" fill = "purple" stroke = "black" stroke-width = "1" />
	<rect x = "210" y = "335" width = "60" height = "35" fill = "purple" stroke = "black" stroke-width = "1" />
	<rect x = "270" y = "335" width = "60" height = "35" fill = "purple" stroke = "black" stroke-width = "1" />
	<rect x = "330" y = "335" width = "60" height = "35" fill = "purple" stroke = "black" stroke-width = "1" />
	<rect x = "390" y = "335" width = "60" height = "35" fill = "purple" stroke = "black" stroke-width = "1" />
	<rect x = "450" y = "335" width = "60" height = "35" fill = "purple" stroke = "black" stroke-width = "1" />
	<rect x = "510" y = "335" width = "60" height = "35" fill = "purple" stroke = "black" stroke-width = "1" />
	<rect x = "30" y = "370" width = "60" height = "35" fill = "purple" stroke = "black" stroke-width = "1" />
	<rect x = "90" y = "370" width = "60" height = "35" fill = "purple" stroke = "black" stroke-width = "1" />
	<rect x = "150" y = "370" width = "60" height = "35" fill = "purple" stroke = "black" stroke-width = "1" />
	<rect x = "210" y = "370" width = "60" height = "35" fill = "purple" stroke = "black" stroke-width = "1" />
	<rect x = "270" y = "370" width = "60" height = "35" fill = "purple" stroke = "black" stroke-width = "1" />
	<rect x = "330" y = "370" width = "60" height = "35" fill = "purple" stroke = "black" stroke-width = "1" />
	<rect x = "390" y = "370" width = "60" height = "35" fill = "purple" stroke = "black" stroke-width = "1" />
	<rect x = "450" y = "370" width = "60" height = "35" fill = "purple" stroke = "black" stroke-width = "1" />
	<rect x = "510" y = "370" width = "60" height = "35" fill = "purple" stroke = "black" stroke-width = "1" />
	<rect x = "90" y = "405" width = "60" height = "35" fill = "purple" stroke = "black" stroke-width = "1" />
	<rect x = "150" y = "405" width = "60" height = "35" fill = "purple" stroke = "black" stroke-width = "1" />
	<rect x = "210" y = "405" width = "60" height = "35" fill = "purple" stroke = "black" stroke-width = "1" />
	<rect x = "270" y = "405" width = "60" height = "35" fill = "purple" stroke = "black" stroke-width = "1" />
	<rect x = "330" y = "405" width = "60" height = "35" fill = "purple" stroke = "black" stroke-width = "1" />
	<rect x = "390" y = "405" width = "60" height = "35" fill = "purple" stroke = "black" stroke-width = "1" />
	<rect x = "450" y = "405" width = "60" height = "35" fill = "purple" stroke = "black" stroke-width = "1" />
	<rect x = "90" y = "440" width = "60" height = "35" fill = "purple" stroke = "black" stroke-width = "1" />
	<rect x = "150" y = "440" width = "60" height = "35" fill = "purple" stroke = "black" stroke-width = "1" />
	<rect x = "210" y = "440" width = "60" height = "35" fill = "purple" stroke = "black" stroke-width = "1" />
	<rect x = "270" y = "440" width = "60" height = "35" fill = "purple" stroke = "black" stroke-width = "1" />
	<rect x = "330" y = "440" width = "60" height = "35" fill = "purple" stroke = "black" stroke-width = "1" />
	<rect x = "390" y = "440" width = "60" height = "35" fill = "purple" stroke = "black" stroke-width = "1" />
	<rect x = "450" y = "440" width = "60" height = "35" fill = "purple" stroke = "black" stroke-width = "1" />
	<rect x = "90" y = "475" width = "60" height = "35" fill = "purple" stroke = "black" stroke-width = "1" />
	<rect x = "150" y = "475" width = "60" height = "35" fill = "purple" stroke = "black" stroke-width = "1" />
	<rect x = "210" y = "475" width = "60" height = "35" fill = "purple" stroke = "black" stroke-width = "1" />
	<rect x = "270" y = "475" width = "60" height = "35" fill = "purple" stroke = "black" stroke-width = "1" />
	<rect x = "330" y = "475" width = "60" height = "35" fill = "purple" stroke = "black" stroke-width = "1" />
	<rect x = "390" y = "475" width = "60" height = "35" fill = "purple" stroke = "black" stroke-width = "1" />
	<rect x = "450" y = "475" width = "60" height = "35" fill = "purple" stroke = "black" stroke-width = "1" />
	<rect x = "150" y = "510" width = "60" height = "35" fill = "purple" stroke = "black" stroke-width = "1" />
	<rect x = "210" y = "510" width = "60" height = "35" fill = "purple" stroke = "black" stroke-width = "1" />
	<rect x = "270" y = "510" width = "60" height = "35" fill = "purple" stroke = "black" stroke-width = "1" />
	<rect x = "330" y = "510" width = "60" height = "35" fill = "purple" stroke = "black" stroke-width = "1" />
	<rect x = "390" y = "510" width = "60" height = "35" fill = "purple" stroke = "black" stroke-width = "1" />
	<rect x = "210" y = "545" width = "60" height = "35" fill = "purple" stroke = "black" stroke-width = "1" />
	<rect x = "270" y = "545" width = "60" height = "35" fill = "purple" stroke = "black" stroke-width = "1" />
	<rect x = "330" y = "545" width = "60" height = "35" fill = "purple" stroke = "black" stroke-width = "1" />
</svg>