<svg version="1.1" baseProfile="full" width="400" height="400" xmlns="http://www.w3.org/2000/svg">
	<rect width="100%" height="100%" fill="gray" />
	<circle cx = "200" cy = "200" r = "200" fill = "pink" stroke = "black" stroke-width = "1" />
	<polygon points = "100,26.7949 75,70.0962 125,70.0962" fill = "purple" stroke = "black" stroke-width = "1" />
	<polygon points = "150,26.7949 125,70.0962 175,70.0962" fill = "purple" stroke = "black" stroke-width = "1" />
	<polygon points = "200,26.7949 175,70.0962 225,70.0962" fill = "purple" stroke = "black" stroke-width = "1" />
	<polygon points = "250,26.7949 225,70.0962 275,70.0962" fill = "purple" stroke = "black" stroke-width = "1" />
	<polygon points = "300,26.7949 275,70.0962 325,70.0962" fill = "purple" stroke = "black" stroke-width = "1" />
	<polygon points = "75,70.0962 50,113.397 100,113.397" fill = "purple" stroke = "black" stroke-width = "1" />
	<polygon points = "125,70.0962 100,113.397 150,113.397" fill = "purple" stroke = "black" stroke-width = "1" />
	<polygon points = "175,70.0962 150,113.397 200,113.397" fill = "purple" stroke = "black" stroke-width = "1" />
	<polygon points = "225,70.0962 200,113.397 250,113.397" fill = "purple" stroke = "black" stroke-width = "1" />
	<polygon points = "275,70.0962 250,113.397 300,113.397" fill = "purple" stroke = "black" stroke-width = "1" />
	<polygon points = "325,70.0962 300,113.397 350,113.397" fill = "purple" stroke = "black" stroke-width = "1" />
	<polygon points = "50,113.397 25,156.699 75,156.699" fill = "purple" stroke = "black" stroke-width = "1" />
	<polygon points = "100,113.397 75,156.699 125,156.699" fill = "purple" stroke = "black" stroke-width = "1" />
	<polygon points = "150,113.397 125,156.699 175,156.699" fill = "purple" stroke = "black" stroke-width = "1" />
	<polygon points = "200,113.397 175,156.699 225,156.699" fill = "purple" stroke = "black" stroke-width = "1" />
	<polygon points = "250,113.397 225,156.699 275,156.699" fill = "purple" stroke = "black" stroke-width = "1" />
	<polygon points = "300,113.397 275,156.699 325,156.699" fill = "purple" stroke = "black" stroke-width = "1" />
	<polygon points = "350,113.397 325,156.699 375,156.699" fill = "purple" stroke = "black" stroke-width = "1" />
	<polygon points = "25,156.699 0,200 50,200" fill = "purple" stroke = "black" stroke-width = "1" />
	<polygon points = "75,156.699 50,200 100,200" fill = "purple" stroke = "black" stroke-width = "1" />
	<polygon points = "125,156.699 100,200 150,200" fill = "purple" stroke = "black" stroke-width = "1" />
	<polygon points = "175,156.699 150,200 200,200" fill = "purple" stroke = "black" stroke-width = "1" />
	<polygon points = "225,156.699 200,200 250,200" fill = "purple" stroke = "black" stroke-width = "1" />
	<polygon points = "275,156.699 250,200 300,200" fill = "purple" stroke = "black" stroke-width = "1" />
	<polygon points = "325,156.699 300,200 350,200" fill = "purple" stroke = "black" stroke-width = "1" />
	<polygon points = "375,156.699 350,200 400,200" fill = "purple" stroke = "black" stroke-width = "1" />
	<polygon points = "50,200 25,243.301 75,243.301" fill = "purple" stroke = "black" stroke-width = "1" />
	<polygon points = "100,200 75,243.301 125,243.301" fill = "purple" stroke = "black" stroke-width = "1" />
	<polygon points = "150,200 125,243.301 175,243.301" fill = "purple" stroke = "black" stroke-width = "1" />
	<polygon points = "200,200 175,243.301 225,243.301" fill = "purple" stroke = "black" stroke-width = "1" />
	<polygon points = "250,200 225,243.301 275,243.301" fill = "purple" stroke = "black" stroke-width = "1" />
	<polygon points = "300,200 275,243.301 325,243.301" fill = "purple" stroke = "black" stroke-width = "1" />
	<polygon points = "350,200 325,243.301 375,243.301" fill = "purple" stroke = "black" stroke-width = "1" />
	<polygon points = "75,243.301 50,286.603 100,286.603" fill = "purple" stroke = "black" stroke-width = "1" />
	<polygon points = "125,243.301 100,286.603 150,286.603" fill = "purple" stroke = "black" stroke-width = "1" />
	<polygon points = "175,243.301 150,286.603 200,286.603" fill = "purple" stroke = "black" stroke-width = "1" />
	<polygon points = "225,243.301 200,286.603 250,286.603" fill = "purple" stroke = "black" stroke-width = "1" />
	<polygon points = "275,243.301 250,286.603 300,286.603" fill = "purple" stroke = "black" stroke-width = "1" />
	<polygon points = "325,243.301 300,286.603 350,286.603" fill = "purple" stroke = "black" stroke-width = "1" />
	<polygon points = "100,286.603 75,329.904 125,329.904" fill = "purple" stroke = "black" stroke-width = "1" />
	<polygon points = "150,286.603 125,329.904 175,329.904" fill = "purple" stroke = "black" stroke-width = "1" />
	<polygon points = "200,286.603 175,329.904 225,329.904" fill = "purple" stroke = "black" stroke-width = "1" />
	<polygon points = "250,286.603 225,329.904 275,329.904" fill = "purple" stroke = "black" stroke-width = "1" />
	<polygon points = "300,286.603 275,329.904 325,329.904" fill = "purple" stroke = "black" stroke-width = "1" />
	<polygon points = "125,329.904 100,373.205 150,373.205" fill = "purple" stroke = "black" stroke-width = "1" />
	<polygon points = "175,329.904 150,373.205 200,373.205" fill = "purple" stroke = "black" stroke-width = "1" />
	<polygon points = "225,329.904 200,373.205 250,373.205" fill = "purple" stroke = "black" stroke-width = "1" />
	<polygon points = "275,329.904 250,373.205 300,373.205" fill = "purple" stroke = "black" stroke-width = "1" />
	<polygon points = "100,26.7949 125,70.0962 150,26.7949" fill = "purple" stroke = "black" stroke-width = "1" />
	<polygon points = "150,26.7949 175,70.0962 200,26.7949" fill = "purple" stroke = "black" stroke-width = "1" />
	<polygon points = "200,26.7949 225,70.0962 250,26.7949" fill = "purple" stroke = "black" stroke-width = "1" />
	<polygon points = "250,26.7949 275,70.0962 300,26.7949" fill = "purple" stroke = "black" stroke-width = "1" />
	<polygon points = "75,70.0962 100,113.397 125,70.0962" fill = "purple" stroke = "black" stroke-width = "1" />
	<polygon points = "125,70.0962 150,113.397 175,70.0962" fill = "purple" stroke = "black" stroke-width = "1" />
	<polygon points = "175,70.0962 200,113.397 225,70.0962" fill = "purple" stroke = "black" stroke-width = "1" />
	<polygon points = "225,70.0962 250,113.397 275,70.0962" fill = "purple" stroke = "black" stroke-width = "1" />
	<polygon points = "275,70.0962 300,113.397 325,70.0962" fill = "purple" stroke = "black" stroke-width = "1" />
	<polygon points = "50,113.397 75,156.699 100,113.397" fill = "purple" stroke = "black" stroke-width = "1" />
	<polygon points = "100,113.397 125,156.699 150,113.397" fill = "purple" stroke = "black" stroke-width = "1" />
	<polygon points = "150,113.397 175,156.699 200,113.397" fill = "purple" stroke = "black" stroke-width = "1" />
	<polygon points = "200,113.397 225,156.699 250,113.397" fill = "purple" stroke = "black" stroke-width = "1" />
	<polygon points = "250,113.397 275,156.699 300,113.397" fill = "purple" stroke = "black" stroke-width = "1" />
	<polygon points = "300,113.397 325,156.699 350,113.397" fill = "purple" stroke = "black" stroke-width = "1" />
	<polygon points = "25,156.699 50,200 75,156.699" fill = "purple" stroke = "black" stroke-width = "1" />
	<polygon points = "75,156.699 100,200 125,156.699" fill = "purple" stroke = "black" stroke-width = "1" />
	<polygon points = "125,156.699 150,200 175,156.699" fill = "purple" stroke = "black" stroke-width = "1" />
	<polygon points = "175,156.699 200,200 225,156.699" fill = "purple" stroke = "black" stroke-width = "1" />
	<polygon points = "225,156.699 250,200 275,156.699" fill = "purple" stroke = "black" stroke-width = "1" />
	<polygon points = "275,156.699 300,200 325,156.699" fill = "purple" stroke = "black" stroke-width = "1" />
	<polygon points = "325,156.699 350,200 375,156.699" fill = "purple" stroke = "black" stroke-width = "1" />
	<polygon points = "0,200 25,243.301 50,200" fill = "purple" stroke = "black" stroke-width = "1" />
	<polygon points = "50,200 75,243.301 100,200" fill = "purple" stroke = "black" stroke-width = "1" />
	<polygon points = "100,200 125,243.301 150,200" fill = "purple" stroke = "black" stroke-width = "1" />
	<polygon points = "150,200 175,243.301 200,200" fill = "purple" stroke = "black" stroke-width = "1" />
	<polygon points = "200,200 225,243.301 250,200" fill = "purple" stroke = "black" stroke-width = "1" />
	<polygon points = "250,200 275,243.301 300,200" fill = "purple" stroke = "black" stroke-width = "1" />
	<polygon points = "300,200 325,243.301 350,200" fill = "purple" stroke = "black" stroke-width = "1" />
	<polygon points = "350,200 375,243.301 400,200" fill = "purple" stroke = "black" stroke-width = "1" />
	<polygon points = "25,243.301 50,286.603 75,243.301" fill = "purple" stroke = "black" stroke-width = "1" />
	<polygon points = "75,243.301 100,286.603 125,243.301" fill = "purple" stroke = "black" stroke-width = "1" />
	<polygon points = "125,243.301 150,286.603 175,243.301" fill = "purple" stroke = "black" stroke-width = "1" />
	<polygon points = "175,243.301 200,286.603 225,243.301" fill = "purple" stroke = "black" stroke-width = "1" />
	<polygon points = "225,243.301 250,286.603 275,243.301" fill = "purple" stroke = "black" stroke-width = "1" />
	<polygon points = "275,243.301 300,286.603 325,243.301" fill = "purple" stroke = "black" stroke-width = "1" />
	<polygon points = "325,243.301 350,286.603 375,243.301" fill = "purple" stroke = "black" stroke-width = "1" />
	<polygon points = "50,286.603 75,329.904 100,286.603" fill = "purple" stroke = "black" stroke-width = "1" />
	<polygon points = "100,286.603 125,329.904 150,286.603" fill = "purple" stroke = "black" stroke-width = "1" />
	<polygon points = "150,286.603 175,329.904 200,286.603" fill = "purple" stroke = "black" stroke-width = "1" />
	<polygon points = "200,286.603 225,329.904 250,286.603" fill = "purple" stroke = "black" stroke-width = "1" />
	<polygon points = "250,286.603 275,329.904 300,286.603" fill = "purple" stroke = "black" stroke-width = "1" />
	<polygon points = "300,286.603 325,329.904 350,286.603" fill = "purple" stroke = "black" stroke-width = "1" />
	<polygon points = "75,329.904 100,373.205 125,329.904" fill = "purple" stroke = "black" stroke-width = "1" />
	<polygon points = "125,329.904 150,373.205 175,329.904" fill = "purple" stroke = "black" stroke-width = "1" />
	<polygon points = "175,329.904 200,373.205 225,329.904" fill = "purple" stroke = "black" stroke-width = "1" />
	<polygon points = "225,329.904 250,373.205 275,329.904" fill = "purple" stroke = "black" stroke-width = "1" />
	<polygon points = "275,329.904 300,373.205 325,329.904" fill = "purple" stroke = "black" stroke-width = "1" />
</svg>