<svg version="1.1" baseProfile="full" width="250" height="216.506" xmlns="http://www.w3.org/2000/svg">
	<rect width="100%" height="100%" fill="gray" />
	<polygon points = "0,216.506 125,0 250,216.506" fill = "pink" stroke = "black" stroke-width = "1" />
	<polygon points = "0,216.506 25,173.205 50,216.506" fill = "purple" stroke = "black" stroke-width = "1" />
	<polygon points = "50,216.506 75,173.205 100,216.506" fill = "purple" stroke = "black" stroke-width = "1" />
	<polygon points = "100,216.506 125,173.205 150,216.506" fill = "purple" stroke = "black" stroke-width = "1" />
	<polygon points = "150,216.506 175,173.205 200,216.506" fill = "purple" stroke = "black" stroke-width = "1" />
	<polygon points = "200,216.506 225,173.205 250,216.506" fill = "purple" stroke = "black" stroke-width = "1" />
	<polygon points = "25,173.205 50,129.904 75,173.205" fill = "purple" stroke = "black" stroke-width = "1" />
	<polygon points = "75,173.205 100,129.904 125,173.205" fill = "purple" stroke = "black" stroke-width = "1" />
	<polygon points = "125,173.205 150,129.904 175,173.205" fill = "purple" stroke = "black" stroke-width = "1" />
	<polygon points = "175,173.205 200,129.904 225,173.205" fill = "purple" stroke = "black" stroke-width = "1" />
	<polygon points = "50,129.904 75,86.6025 100,129.904" fill = "purple" stroke = "black" stroke-width = "1" />
	<polygon points = "100,129.904 125,86.6025 150,129.904" fill = "purple" stroke = "black" stroke-width = "1" />
	<polygon points = "150,129.904 175,86.6025 200,129.904" fill = "purple" stroke = "black" stroke-width = "1" />
	<polygon points = "75,86.6025 100,43.3013 125,86.6025" fill = "purple" stroke = "black" stroke-width = "1" />
	<polygon points = "125,86.6025 150,43.3013 175,86.6025" fill = "purple" stroke = "black" stroke-width = "1" />
	<polygon points = "100,43.3013 125,1.42109e-14 150,43.3013" fill = "purple" stroke = "black" stroke-width = "1" />
	<polygon points = "25,173.205 50,216.506 75,173.205" fill = "purple" stroke = "black" stroke-width = "1" />
	<polygon points = "75,173.205 100,216.506 125,173.205" fill = "purple" stroke = "black" stroke-width = "1" />
	<polygon points = "125,173.205 150,216.506 175,173.205" fill = "purple" stroke = "black" stroke-width = "1" />
	<polygon points = "175,173.205 200,216.506 225,173.205" fill = "purple" stroke = "black" stroke-width = "1" />
	<polygon points = "50,129.904 75,173.205 100,129.904" fill = "purple" stroke = "black" stroke-width = "1" />
	<polygon points = "100,129.904 125,173.205 150,129.904" fill = "purple" stroke = "black" stroke-width = "1" />
	<polygon points = "150,129.904 175,173.205 200,129.904" fill = "purple" stroke = "black" stroke-width = "1" />
	<polygon points = "75,86.6025 100,129.904 125,86.6025" fill = "purple" stroke = "black" stroke-width = "1" />
	<polygon points = "125,86.6025 150,129.904 175,86.6025" fill = "purple" stroke = "black" stroke-width = "1" />
	<polygon points = "100,43.3013 125,86.6025 150,43.3013" fill = "purple" stroke = "black" stroke-width = "1" />
</svg>