<svg version="1.1" baseProfile="full" width="500" height="433.013" xmlns="http://www.w3.org/2000/svg">
	<rect width="100%" height="100%" fill="gray" />
	<polygon points = "0,433.013 250,0 500,433.013" fill = "pink" stroke = "black" stroke-width = "1" />
	<circle cx = "51.9615" cy = "403.013" r = "30" fill = "purple" stroke = "black" stroke-width = "1" />
	<circle cx = "111.962" cy = "403.013" r = "30" fill = "purple" stroke = "black" stroke-width = "1" />
	<circle cx = "171.962" cy = "403.013" r = "30" fill = "purple" stroke = "black" stroke-width = "1" />
	<circle cx = "231.962" cy = "403.013" r = "30" fill = "purple" stroke = "black" stroke-width = "1" />
	<circle cx = "291.962" cy = "403.013" r = "30" fill = "purple" stroke = "black" stroke-width = "1" />
	<circle cx = "351.962" cy = "403.013" r = "30" fill = "purple" stroke = "black" stroke-width = "1" />
	<circle cx = "411.962" cy = "403.013" r = "30" fill = "purple" stroke = "black" stroke-width = "1" />
	<circle cx = "81.9615" cy = "351.051" r = "30" fill = "purple" stroke = "black" stroke-width = "1" />
	<circle cx = "141.962" cy = "351.051" r = "30" fill = "purple" stroke = "black" stroke-width = "1" />
	<circle cx = "201.962" cy = "351.051" r = "30" fill = "purple" stroke = "black" stroke-width = "1" />
	<circle cx = "261.962" cy = "351.051" r = "30" fill = "purple" stroke = "black" stroke-width = "1" />
	<circle cx = "321.962" cy = "351.051" r = "30" fill = "purple" stroke = "black" stroke-width = "1" />
	<circle cx = "381.962" cy = "351.051" r = "30" fill = "purple" stroke = "black" stroke-width = "1" />
	<circle cx = "111.962" cy = "299.09" r = "30" fill = "purple" stroke = "black" stroke-width = "1" />
	<circle cx = "171.962" cy = "299.09" r = "30" fill = "purple" stroke = "black" stroke-width = "1" />
	<circle cx = "231.962" cy = "299.09" r = "30" fill = "purple" stroke = "black" stroke-width = "1" />
	<circle cx = "291.962" cy = "299.09" r = "30" fill = "purple" stroke = "black" stroke-width = "1" />
	<circle cx = "351.962" cy = "299.09" r = "30" fill = "purple" stroke = "black" stroke-width = "1" />
	<circle cx = "141.962" cy = "247.128" r = "30" fill = "purple" stroke = "black" stroke-width = "1" />
	<circle cx = "201.962" cy = "247.128" r = "30" fill = "purple" stroke = "black" stroke-width = "1" />
	<circle cx = "261.962" cy = "247.128" r = "30" fill = "purple" stroke = "black" stroke-width = "1" />
	<circle cx = "321.962" cy = "247.128" r = "30" fill = "purple" stroke = "black" stroke-width = "1" />
	<circle cx = "171.962" cy = "195.167" r = "30" fill = "purple" stroke = "black" stroke-width = "1" />
	<circle cx = "231.962" cy = "195.167" r = "30" fill = "purple" stroke = "black" stroke-width = "1" />
	<circle cx = "291.962" cy = "195.167" r = "30" fill = "purple" stroke = "black" stroke-width = "1" />
	<circle cx = "201.962" cy = "143.205" r = "30" fill = "purple" stroke = "black" stroke-width = "1" />
	<circle cx = "261.962" cy = "143.205" r = "30" fill = "purple" stroke = "black" stroke-width = "1" />
	<circle cx = "231.962" cy = "91.2436" r = "30" fill = "purple" stroke = "black" stroke-width = "1" />
</svg>