<svg version="1.1" baseProfile="full" width="100" height="200" xmlns="http://www.w3.org/2000/svg">
	<rect width="100%" height="100%" fill="gray" />
	<rect x = "0" y = "0" width = "100" height = "200" fill = "pink" stroke = "black" stroke-width = "1" />
	<rect x = "0" y = "0" width = "20" height = "50" fill = "purple" stroke = "black" stroke-width = "1" />
	<rect x = "20" y = "0" width = "20" height = "50" fill = "purple" stroke = "black" stroke-width = "1" />
	<rect x = "40" y = "0" width = "20" height = "50" fill = "purple" stroke = "black" stroke-width = "1" />
	<rect x = "60" y = "0" width = "20" height = "50" fill = "purple" stroke = "black" stroke-width = "1" />
	<rect x = "80" y = "0" width = "20" height = "50" fill = "purple" stroke = "black" stroke-width = "1" />
	<rect x = "0" y = "50" width = "20" height = "50" fill = "purple" stroke = "black" stroke-width = "1" />
	<rect x = "20" y = "50" width = "20" height = "50" fill = "purple" stroke = "black" stroke-width = "1" />
	<rect x = "40" y = "50" width = "20" height = "50" fill = "purple" stroke = "black" stroke-width = "1" />
	<rect x = "60" y = "50" width = "20" height = "50" fill = "purple" stroke = "black" stroke-width = "1" />
	<rect x = "80" y = "50" width = "20" height = "50" fill = "purple" stroke = "black" stroke-width = "1" />
	<rect x = "0" y = "100" width = "20" height = "50" fill = "purple" stroke = "black" stroke-width = "1" />
	<rect x = "20" y = "100" width = "20" height = "50" fill = "purple" stroke = "black" stroke-width = "1" />
	<rect x = "40" y = "100" width = "20" height = "50" fill = "purple" stroke = "black" stroke-width = "1" />
	<rect x = "60" y = "100" width = "20" height = "50" fill = "purple" stroke = "black" stroke-width = "1" />
	<rect x = "80" y = "100" width = "20" height = "50" fill = "purple" stroke = "black" stroke-width = "1" />
	<rect x = "0" y = "150" width = "20" height = "50" fill = "purple" stroke = "black" stroke-width = "1" />
	<rect x = "20" y = "150" width = "20" height = "50" fill = "purple" stroke = "black" stroke-width = "1" />
	<rect x = "40" y = "150" width = "20" height = "50" fill = "purple" stroke = "black" stroke-width = "1" />
	<rect x = "60" y = "150" width = "20" height = "50" fill = "purple" stroke = "black" stroke-width = "1" />
	<rect x = "80" y = "150" width = "20" height = "50" fill = "purple" stroke = "black" stroke-width = "1" />
</svg>