<svg version="1.1" baseProfile="full" width="100%" height="100%" xmlns="http://www.w3.org/2000/svg">
	<rect width="100%" height="100%" fill="gray" />
	<polygon points = "0,2073.21 100,1900 200,2073.21" fill = "purple" stroke = "black" stroke-width = "1" />
	<rect x = "0" y = "1200" width = "100" height = "200" fill = "purple" stroke = "black" stroke-width = "1" />
	<polygon points = "200,2246.41 400,1900 600,2246.41" fill = "purple" stroke = "black" stroke-width = "1" />
	<rect x = "100" y = "1200" width = "400" height = "500" fill = "purple" stroke = "black" stroke-width = "1" />
	<polygon points = "600,2592.82 1000,1900 1400,2592.82" fill = "purple" stroke = "black" stroke-width = "1" />
	<circle cx = "300" cy = "3000" r = "300" fill = "purple" stroke = "black" stroke-width = "1" />
	<polygon points = "1800,866.025 2300,0 2800,866.025" fill = "purple" stroke = "black" stroke-width = "1" />
	<polygon points = "1200,0 1800,0 1800,800 1200,800" fill = "purple" stroke = "black" stroke-width = "1" />
	<rect x = "500" y = "1200" width = "1000" height = "700" fill = "purple" stroke = "black" stroke-width = "1" />
	<polygon points = "1200,600 1198.82,562.326 1195.27,524.8 1189.37,487.571 1181.15,450.786 1170.63,414.59 1157.87,379.125 1142.9,344.532 1125.78,310.948 1106.6,278.504 1085.41,247.329 1062.31,217.546 1037.38,189.272 1010.73,162.619 982.454,137.692 952.671,114.59 921.496,93.4032 889.052,74.216 855.468,57.1038 820.875,42.1341 785.41,29.3661 749.214,18.8501 712.429,10.6276 675.2,4.73118 637.674,1.18396 600,0 562.326,1.18396 524.8,4.73118 487.571,10.6276 450.786,18.8501 414.59,29.3661 379.125,42.1341 344.532,57.1038 310.948,74.216 278.504,93.4032 247.329,114.59 217.546,137.692 189.272,162.619 162.619,189.272 137.692,217.546 114.59,247.329 93.4032,278.504 74.216,310.948 57.1038,344.532 42.1341,379.125 29.3661,414.59 18.8501,450.786 10.6276,487.571 4.73118,524.8 1.18396,562.326 0,600 1.18396,637.674 4.73118,675.2 10.6276,712.429 18.8501,749.214 29.3661,785.41 42.1341,820.875 57.1038,855.468 74.216,889.052 93.4032,921.496 114.59,952.671 137.692,982.454 162.619,1010.73 189.272,1037.38 217.546,1062.31 247.329,1085.41 278.504,1106.6 310.948,1125.78 344.532,1142.9 379.125,1157.87 414.59,1170.63 450.786,1181.15 487.571,1189.37 524.8,1195.27 562.326,1198.82 600,1200 637.674,1198.82 675.2,1195.27 712.429,1189.37 749.214,1181.15 785.41,1170.63 820.875,1157.87 855.468,1142.9 889.052,1125.78 921.496,1106.6 952.671,1085.41 982.454,1062.31 1010.73,1037.38 1037.38,1010.73 1062.31,982.454 1085.41,952.671 1106.6,921.496 1125.78,889.052 1142.9,855.468 1157.87,820.875 1170.63,785.41 1181.15,749.214 1189.37,712.429 1195.27,675.2 1198.82,637.674" fill = "purple" stroke = "black" stroke-width = "1" />
	<circle cx = "1500" cy = "3600" r = "900" fill = "purple" stroke = "black" stroke-width = "1" />
	<circle cx = "3600" cy = "3900" r = "1200" fill = "purple" stroke = "black" stroke-width = "1" />
</svg>