<svg version="1.1" baseProfile="full" width="200" height="150" xmlns="http://www.w3.org/2000/svg">
	<rect width="100%" height="100%" fill="gray" />
	<rect x = "0" y = "0" width = "200" height = "150" fill = "pink" stroke = "black" stroke-width = "1" />
	<rect x = "0" y = "0" width = "25" height = "75" fill = "purple" stroke = "black" stroke-width = "1" />
	<rect x = "25" y = "0" width = "25" height = "75" fill = "purple" stroke = "black" stroke-width = "1" />
	<rect x = "50" y = "0" width = "25" height = "75" fill = "purple" stroke = "black" stroke-width = "1" />
	<rect x = "75" y = "0" width = "25" height = "75" fill = "purple" stroke = "black" stroke-width = "1" />
	<rect x = "100" y = "0" width = "25" height = "75" fill = "purple" stroke = "black" stroke-width = "1" />
	<rect x = "125" y = "0" width = "25" height = "75" fill = "purple" stroke = "black" stroke-width = "1" />
	<rect x = "150" y = "0" width = "25" height = "75" fill = "purple" stroke = "black" stroke-width = "1" />
	<rect x = "175" y = "0" width = "25" height = "75" fill = "purple" stroke = "black" stroke-width = "1" />
	<rect x = "0" y = "75" width = "25" height = "75" fill = "purple" stroke = "black" stroke-width = "1" />
	<rect x = "25" y = "75" width = "25" height = "75" fill = "purple" stroke = "black" stroke-width = "1" />
	<rect x = "50" y = "75" width = "25" height = "75" fill = "purple" stroke = "black" stroke-width = "1" />
	<rect x = "75" y = "75" width = "25" height = "75" fill = "purple" stroke = "black" stroke-width = "1" />
	<rect x = "100" y = "75" width = "25" height = "75" fill = "purple" stroke = "black" stroke-width = "1" />
	<rect x = "125" y = "75" width = "25" height = "75" fill = "purple" stroke = "black" stroke-width = "1" />
	<rect x = "150" y = "75" width = "25" height = "75" fill = "purple" stroke = "black" stroke-width = "1" />
	<rect x = "175" y = "75" width = "25" height = "75" fill = "purple" stroke = "black" stroke-width = "1" />
</svg>