<svg version="1.1" baseProfile="full" width="200" height="200" xmlns="http://www.w3.org/2000/svg">
	<rect width="100%" height="100%" fill="gray" />
	<circle cx = "100" cy = "100" r = "100" fill = "pink" stroke = "black" stroke-width = "1" />
	<rect x = "40" y = "20" width = "30" height = "40" fill = "purple" stroke = "black" stroke-width = "1" />
	<rect x = "70" y = "20" width = "30" height = "40" fill = "purple" stroke = "black" stroke-width = "1" />
	<rect x = "100" y = "20" width = "30" height = "40" fill = "purple" stroke = "black" stroke-width = "1" />
	<rect x = "130" y = "20" width = "30" height = "40" fill = "purple" stroke = "black" stroke-width = "1" />
	<rect x = "10" y = "60" width = "30" height = "40" fill = "purple" stroke = "black" stroke-width = "1" />
	<rect x = "40" y = "60" width = "30" height = "40" fill = "purple" stroke = "black" stroke-width = "1" />
	<rect x = "70" y = "60" width = "30" height = "40" fill = "purple" stroke = "black" stroke-width = "1" />
	<rect x = "100" y = "60" width = "30" height = "40" fill = "purple" stroke = "black" stroke-width = "1" />
	<rect x = "130" y = "60" width = "30" height = "40" fill = "purple" stroke = "black" stroke-width = "1" />
	<rect x = "160" y = "60" width = "30" height = "40" fill = "purple" stroke = "black" stroke-width = "1" />
	<rect x = "10" y = "100" width = "30" height = "40" fill = "purple" stroke = "black" stroke-width = "1" />
	<rect x = "40" y = "100" width = "30" height = "40" fill = "purple" stroke = "black" stroke-width = "1" />
	<rect x = "70" y = "100" width = "30" height = "40" fill = "purple" stroke = "black" stroke-width = "1" />
	<rect x = "100" y = "100" width = "30" height = "40" fill = "purple" stroke = "black" stroke-width = "1" />
	<rect x = "130" y = "100" width = "30" height = "40" fill = "purple" stroke = "black" stroke-width = "1" />
	<rect x = "160" y = "100" width = "30" height = "40" fill = "purple" stroke = "black" stroke-width = "1" />
	<rect x = "40" y = "140" width = "30" height = "40" fill = "purple" stroke = "black" stroke-width = "1" />
	<rect x = "70" y = "140" width = "30" height = "40" fill = "purple" stroke = "black" stroke-width = "1" />
	<rect x = "100" y = "140" width = "30" height = "40" fill = "purple" stroke = "black" stroke-width = "1" />
	<rect x = "130" y = "140" width = "30" height = "40" fill = "purple" stroke = "black" stroke-width = "1" />
</svg>