<svg version="1.1" baseProfile="full" width="400" height="346.41" xmlns="http://www.w3.org/2000/svg">
	<rect width="100%" height="100%" fill="gray" />
	<polygon points = "0,346.41 200,0 400,346.41" fill = "pink" stroke = "black" stroke-width = "1" />
	<rect x = "43.3013" y = "271.41" width = "25" height = "75" fill = "purple" stroke = "black" stroke-width = "1" />
	<rect x = "68.3013" y = "271.41" width = "25" height = "75" fill = "purple" stroke = "black" stroke-width = "1" />
	<rect x = "93.3013" y = "271.41" width = "25" height = "75" fill = "purple" stroke = "black" stroke-width = "1" />
	<rect x = "118.301" y = "271.41" width = "25" height = "75" fill = "purple" stroke = "black" stroke-width = "1" />
	<rect x = "143.301" y = "271.41" width = "25" height = "75" fill = "purple" stroke = "black" stroke-width = "1" />
	<rect x = "168.301" y = "271.41" width = "25" height = "75" fill = "purple" stroke = "black" stroke-width = "1" />
	<rect x = "193.301" y = "271.41" width = "25" height = "75" fill = "purple" stroke = "black" stroke-width = "1" />
	<rect x = "218.301" y = "271.41" width = "25" height = "75" fill = "purple" stroke = "black" stroke-width = "1" />
	<rect x = "243.301" y = "271.41" width = "25" height = "75" fill = "purple" stroke = "black" stroke-width = "1" />
	<rect x = "268.301" y = "271.41" width = "25" height = "75" fill = "purple" stroke = "black" stroke-width = "1" />
	<rect x = "293.301" y = "271.41" width = "25" height = "75" fill = "purple" stroke = "black" stroke-width = "1" />
	<rect x = "318.301" y = "271.41" width = "25" height = "75" fill = "purple" stroke = "black" stroke-width = "1" />
	<rect x = "86.6025" y = "196.41" width = "25" height = "75" fill = "purple" stroke = "black" stroke-width = "1" />
	<rect x = "111.603" y = "196.41" width = "25" height = "75" fill = "purple" stroke = "black" stroke-width = "1" />
	<rect x = "136.603" y = "196.41" width = "25" height = "75" fill = "purple" stroke = "black" stroke-width = "1" />
	<rect x = "161.603" y = "196.41" width = "25" height = "75" fill = "purple" stroke = "black" stroke-width = "1" />
	<rect x = "186.603" y = "196.41" width = "25" height = "75" fill = "purple" stroke = "black" stroke-width = "1" />
	<rect x = "211.603" y = "196.41" width = "25" height = "75" fill = "purple" stroke = "black" stroke-width = "1" />
	<rect x = "236.603" y = "196.41" width = "25" height = "75" fill = "purple" stroke = "black" stroke-width = "1" />
	<rect x = "261.603" y = "196.41" width = "25" height = "75" fill = "purple" stroke = "black" stroke-width = "1" />
	<rect x = "286.603" y = "196.41" width = "25" height = "75" fill = "purple" stroke = "black" stroke-width = "1" />
	<rect x = "129.904" y = "121.41" width = "25" height = "75" fill = "purple" stroke = "black" stroke-width = "1" />
	<rect x = "154.904" y = "121.41" width = "25" height = "75" fill = "purple" stroke = "black" stroke-width = "1" />
	<rect x = "179.904" y = "121.41" width = "25" height = "75" fill = "purple" stroke = "black" stroke-width = "1" />
	<rect x = "204.904" y = "121.41" width = "25" height = "75" fill = "purple" stroke = "black" stroke-width = "1" />
	<rect x = "229.904" y = "121.41" width = "25" height = "75" fill = "purple" stroke = "black" stroke-width = "1" />
	<rect x = "173.205" y = "46.4102" width = "25" height = "75" fill = "purple" stroke = "black" stroke-width = "1" />
	<rect x = "198.205" y = "46.4102" width = "25" height = "75" fill = "purple" stroke = "black" stroke-width = "1" />
</svg>