<svg version="1.1" baseProfile="full" width="800" height="800" xmlns="http://www.w3.org/2000/svg">
	<rect width="100%" height="100%" fill="gray" />
	<circle cx = "400" cy = "400" r = "400" fill = "pink" stroke = "black" stroke-width = "1" />
	<polygon points = "325,10.2886 287.5,75.2405 362.5,75.2405" fill = "purple" stroke = "black" stroke-width = "1" />
	<polygon points = "400,10.2886 362.5,75.2405 437.5,75.2405" fill = "purple" stroke = "black" stroke-width = "1" />
	<polygon points = "475,10.2886 437.5,75.2405 512.5,75.2405" fill = "purple" stroke = "black" stroke-width = "1" />
	<polygon points = "212.5,75.2405 175,140.192 250,140.192" fill = "purple" stroke = "black" stroke-width = "1" />
	<polygon points = "287.5,75.2405 250,140.192 325,140.192" fill = "purple" stroke = "black" stroke-width = "1" />
	<polygon points = "362.5,75.2405 325,140.192 400,140.192" fill = "purple" stroke = "black" stroke-width = "1" />
	<polygon points = "437.5,75.2405 400,140.192 475,140.192" fill = "purple" stroke = "black" stroke-width = "1" />
	<polygon points = "512.5,75.2405 475,140.192 550,140.192" fill = "purple" stroke = "black" stroke-width = "1" />
	<polygon points = "587.5,75.2405 550,140.192 625,140.192" fill = "purple" stroke = "black" stroke-width = "1" />
	<polygon points = "100,140.192 62.5,205.144 137.5,205.144" fill = "purple" stroke = "black" stroke-width = "1" />
	<polygon points = "175,140.192 137.5,205.144 212.5,205.144" fill = "purple" stroke = "black" stroke-width = "1" />
	<polygon points = "250,140.192 212.5,205.144 287.5,205.144" fill = "purple" stroke = "black" stroke-width = "1" />
	<polygon points = "325,140.192 287.5,205.144 362.5,205.144" fill = "purple" stroke = "black" stroke-width = "1" />
	<polygon points = "400,140.192 362.5,205.144 437.5,205.144" fill = "purple" stroke = "black" stroke-width = "1" />
	<polygon points = "475,140.192 437.5,205.144 512.5,205.144" fill = "purple" stroke = "black" stroke-width = "1" />
	<polygon points = "550,140.192 512.5,205.144 587.5,205.144" fill = "purple" stroke = "black" stroke-width = "1" />
	<polygon points = "625,140.192 587.5,205.144 662.5,205.144" fill = "purple" stroke = "black" stroke-width = "1" />
	<polygon points = "700,140.192 662.5,205.144 737.5,205.144" fill = "purple" stroke = "black" stroke-width = "1" />
	<polygon points = "62.5,205.144 25,270.096 100,270.096" fill = "purple" stroke = "black" stroke-width = "1" />
	<polygon points = "137.5,205.144 100,270.096 175,270.096" fill = "purple" stroke = "black" stroke-width = "1" />
	<polygon points = "212.5,205.144 175,270.096 250,270.096" fill = "purple" stroke = "black" stroke-width = "1" />
	<polygon points = "287.5,205.144 250,270.096 325,270.096" fill = "purple" stroke = "black" stroke-width = "1" />
	<polygon points = "362.5,205.144 325,270.096 400,270.096" fill = "purple" stroke = "black" stroke-width = "1" />
	<polygon points = "437.5,205.144 400,270.096 475,270.096" fill = "purple" stroke = "black" stroke-width = "1" />
	<polygon points = "512.5,205.144 475,270.096 550,270.096" fill = "purple" stroke = "black" stroke-width = "1" />
	<polygon points = "587.5,205.144 550,270.096 625,270.096" fill = "purple" stroke = "black" stroke-width = "1" />
	<polygon points = "662.5,205.144 625,270.096 700,270.096" fill = "purple" stroke = "black" stroke-width = "1" />
	<polygon points = "737.5,205.144 700,270.096 775,270.096" fill = "purple" stroke = "black" stroke-width = "1" />
	<polygon points = "100,270.096 62.5,335.048 137.5,335.048" fill = "purple" stroke = "black" stroke-width = "1" />
	<polygon points = "175,270.096 137.5,335.048 212.5,335.048" fill = "purple" stroke = "black" stroke-width = "1" />
	<polygon points = "250,270.096 212.5,335.048 287.5,335.048" fill = "purple" stroke = "black" stroke-width = "1" />
	<polygon points = "325,270.096 287.5,335.048 362.5,335.048" fill = "purple" stroke = "black" stroke-width = "1" />
	<polygon points = "400,270.096 362.5,335.048 437.5,335.048" fill = "purple" stroke = "black" stroke-width = "1" />
	<polygon points = "475,270.096 437.5,335.048 512.5,335.048" fill = "purple" stroke = "black" stroke-width = "1" />
	<polygon points = "550,270.096 512.5,335.048 587.5,335.048" fill = "purple" stroke = "black" stroke-width = "1" />
	<polygon points = "625,270.096 587.5,335.048 662.5,335.048" fill = "purple" stroke = "black" stroke-width = "1" />
	<polygon points = "700,270.096 662.5,335.048 737.5,335.048" fill = "purple" stroke = "black" stroke-width = "1" />
	<polygon points = "62.5,335.048 25,400 100,400" fill = "purple" stroke = "black" stroke-width = "1" />
	<polygon points = "137.5,335.048 100,400 175,400" fill = "purple" stroke = "black" stroke-width = "1" />
	<polygon points = "212.5,335.048 175,400 250,400" fill = "purple" stroke = "black" stroke-width = "1" />
	<polygon points = "287.5,335.048 250,400 325,400" fill = "purple" stroke = "black" stroke-width = "1" />
	<polygon points = "362.5,335.048 325,400 400,400" fill = "purple" stroke = "black" stroke-width = "1" />
	<polygon points = "437.5,335.048 400,400 475,400" fill = "purple" stroke = "black" stroke-width = "1" />
	<polygon points = "512.5,335.048 475,400 550,400" fill = "purple" stroke = "black" stroke-width = "1" />
	<polygon points = "587.5,335.048 550,400 625,400" fill = "purple" stroke = "black" stroke-width = "1" />
	<polygon points = "662.5,335.048 625,400 700,400" fill = "purple" stroke = "black" stroke-width = "1" />
	<polygon points = "737.5,335.048 700,400 775,400" fill = "purple" stroke = "black" stroke-width = "1" />
	<polygon points = "100,400 62.5,464.952 137.5,464.952" fill = "purple" stroke = "black" stroke-width = "1" />
	<polygon points = "175,400 137.5,464.952 212.5,464.952" fill = "purple" stroke = "black" stroke-width = "1" />
	<polygon points = "250,400 212.5,464.952 287.5,464.952" fill = "purple" stroke = "black" stroke-width = "1" />
	<polygon points = "325,400 287.5,464.952 362.5,464.952" fill = "purple" stroke = "black" stroke-width = "1" />
	<polygon points = "400,400 362.5,464.952 437.5,464.952" fill = "purple" stroke = "black" stroke-width = "1" />
	<polygon points = "475,400 437.5,464.952 512.5,464.952" fill = "purple" stroke = "black" stroke-width = "1" />
	<polygon points = "550,400 512.5,464.952 587.5,464.952" fill = "purple" stroke = "black" stroke-width = "1" />
	<polygon points = "625,400 587.5,464.952 662.5,464.952" fill = "purple" stroke = "black" stroke-width = "1" />
	<polygon points = "700,400 662.5,464.952 737.5,464.952" fill = "purple" stroke = "black" stroke-width = "1" />
	<polygon points = "62.5,464.952 25,529.904 100,529.904" fill = "purple" stroke = "black" stroke-width = "1" />
	<polygon points = "137.5,464.952 100,529.904 175,529.904" fill = "purple" stroke = "black" stroke-width = "1" />
	<polygon points = "212.5,464.952 175,529.904 250,529.904" fill = "purple" stroke = "black" stroke-width = "1" />
	<polygon points = "287.5,464.952 250,529.904 325,529.904" fill = "purple" stroke = "black" stroke-width = "1" />
	<polygon points = "362.5,464.952 325,529.904 400,529.904" fill = "purple" stroke = "black" stroke-width = "1" />
	<polygon points = "437.5,464.952 400,529.904 475,529.904" fill = "purple" stroke = "black" stroke-width = "1" />
	<polygon points = "512.5,464.952 475,529.904 550,529.904" fill = "purple" stroke = "black" stroke-width = "1" />
	<polygon points = "587.5,464.952 550,529.904 625,529.904" fill = "purple" stroke = "black" stroke-width = "1" />
	<polygon points = "662.5,464.952 625,529.904 700,529.904" fill = "purple" stroke = "black" stroke-width = "1" />
	<polygon points = "737.5,464.952 700,529.904 775,529.904" fill = "purple" stroke = "black" stroke-width = "1" />
	<polygon points = "100,529.904 62.5,594.856 137.5,594.856" fill = "purple" stroke = "black" stroke-width = "1" />
	<polygon points = "175,529.904 137.5,594.856 212.5,594.856" fill = "purple" stroke = "black" stroke-width = "1" />
	<polygon points = "250,529.904 212.5,594.856 287.5,594.856" fill = "purple" stroke = "black" stroke-width = "1" />
	<polygon points = "325,529.904 287.5,594.856 362.5,594.856" fill = "purple" stroke = "black" stroke-width = "1" />
	<polygon points = "400,529.904 362.5,594.856 437.5,594.856" fill = "purple" stroke = "black" stroke-width = "1" />
	<polygon points = "475,529.904 437.5,594.856 512.5,594.856" fill = "purple" stroke = "black" stroke-width = "1" />
	<polygon points = "550,529.904 512.5,594.856 587.5,594.856" fill = "purple" stroke = "black" stroke-width = "1" />
	<polygon points = "625,529.904 587.5,594.856 662.5,594.856" fill = "purple" stroke = "black" stroke-width = "1" />
	<polygon points = "700,529.904 662.5,594.856 737.5,594.856" fill = "purple" stroke = "black" stroke-width = "1" />
	<polygon points = "137.5,594.856 100,659.808 175,659.808" fill = "purple" stroke = "black" stroke-width = "1" />
	<polygon points = "212.5,594.856 175,659.808 250,659.808" fill = "purple" stroke = "black" stroke-width = "1" />
	<polygon points = "287.5,594.856 250,659.808 325,659.808" fill = "purple" stroke = "black" stroke-width = "1" />
	<polygon points = "362.5,594.856 325,659.808 400,659.808" fill = "purple" stroke = "black" stroke-width = "1" />
	<polygon points = "437.5,594.856 400,659.808 475,659.808" fill = "purple" stroke = "black" stroke-width = "1" />
	<polygon points = "512.5,594.856 475,659.808 550,659.808" fill = "purple" stroke = "black" stroke-width = "1" />
	<polygon points = "587.5,594.856 550,659.808 625,659.808" fill = "purple" stroke = "black" stroke-width = "1" />
	<polygon points = "662.5,594.856 625,659.808 700,659.808" fill = "purple" stroke = "black" stroke-width = "1" />
	<polygon points = "250,659.808 212.5,724.76 287.5,724.76" fill = "purple" stroke = "black" stroke-width = "1" />
	<polygon points = "325,659.808 287.5,724.76 362.5,724.76" fill = "purple" stroke = "black" stroke-width = "1" />
	<polygon points = "400,659.808 362.5,724.76 437.5,724.76" fill = "purple" stroke = "black" stroke-width = "1" />
	<polygon points = "475,659.808 437.5,724.76 512.5,724.76" fill = "purple" stroke = "black" stroke-width = "1" />
	<polygon points = "550,659.808 512.5,724.76 587.5,724.76" fill = "purple" stroke = "black" stroke-width = "1" />
	<polygon points = "362.5,724.76 325,789.711 400,789.711" fill = "purple" stroke = "black" stroke-width = "1" />
	<polygon points = "437.5,724.76 400,789.711 475,789.711" fill = "purple" stroke = "black" stroke-width = "1" />
	<polygon points = "325,10.2886 362.5,75.2405 400,10.2886" fill = "purple" stroke = "black" stroke-width = "1" />
	<polygon points = "400,10.2886 437.5,75.2405 475,10.2886" fill = "purple" stroke = "black" stroke-width = "1" />
	<polygon points = "212.5,75.2405 250,140.192 287.5,75.2405" fill = "purple" stroke = "black" stroke-width = "1" />
	<polygon points = "287.5,75.2405 325,140.192 362.5,75.2405" fill = "purple" stroke = "black" stroke-width = "1" />
	<polygon points = "362.5,75.2405 400,140.192 437.5,75.2405" fill = "purple" stroke = "black" stroke-width = "1" />
	<polygon points = "437.5,75.2405 475,140.192 512.5,75.2405" fill = "purple" stroke = "black" stroke-width = "1" />
	<polygon points = "512.5,75.2405 550,140.192 587.5,75.2405" fill = "purple" stroke = "black" stroke-width = "1" />
	<polygon points = "100,140.192 137.5,205.144 175,140.192" fill = "purple" stroke = "black" stroke-width = "1" />
	<polygon points = "175,140.192 212.5,205.144 250,140.192" fill = "purple" stroke = "black" stroke-width = "1" />
	<polygon points = "250,140.192 287.5,205.144 325,140.192" fill = "purple" stroke = "black" stroke-width = "1" />
	<polygon points = "325,140.192 362.5,205.144 400,140.192" fill = "purple" stroke = "black" stroke-width = "1" />
	<polygon points = "400,140.192 437.5,205.144 475,140.192" fill = "purple" stroke = "black" stroke-width = "1" />
	<polygon points = "475,140.192 512.5,205.144 550,140.192" fill = "purple" stroke = "black" stroke-width = "1" />
	<polygon points = "550,140.192 587.5,205.144 625,140.192" fill = "purple" stroke = "black" stroke-width = "1" />
	<polygon points = "625,140.192 662.5,205.144 700,140.192" fill = "purple" stroke = "black" stroke-width = "1" />
	<polygon points = "62.5,205.144 100,270.096 137.5,205.144" fill = "purple" stroke = "black" stroke-width = "1" />
	<polygon points = "137.5,205.144 175,270.096 212.5,205.144" fill = "purple" stroke = "black" stroke-width = "1" />
	<polygon points = "212.5,205.144 250,270.096 287.5,205.144" fill = "purple" stroke = "black" stroke-width = "1" />
	<polygon points = "287.5,205.144 325,270.096 362.5,205.144" fill = "purple" stroke = "black" stroke-width = "1" />
	<polygon points = "362.5,205.144 400,270.096 437.5,205.144" fill = "purple" stroke = "black" stroke-width = "1" />
	<polygon points = "437.5,205.144 475,270.096 512.5,205.144" fill = "purple" stroke = "black" stroke-width = "1" />
	<polygon points = "512.5,205.144 550,270.096 587.5,205.144" fill = "purple" stroke = "black" stroke-width = "1" />
	<polygon points = "587.5,205.144 625,270.096 662.5,205.144" fill = "purple" stroke = "black" stroke-width = "1" />
	<polygon points = "662.5,205.144 700,270.096 737.5,205.144" fill = "purple" stroke = "black" stroke-width = "1" />
	<polygon points = "25,270.096 62.5,335.048 100,270.096" fill = "purple" stroke = "black" stroke-width = "1" />
	<polygon points = "100,270.096 137.5,335.048 175,270.096" fill = "purple" stroke = "black" stroke-width = "1" />
	<polygon points = "175,270.096 212.5,335.048 250,270.096" fill = "purple" stroke = "black" stroke-width = "1" />
	<polygon points = "250,270.096 287.5,335.048 325,270.096" fill = "purple" stroke = "black" stroke-width = "1" />
	<polygon points = "325,270.096 362.5,335.048 400,270.096" fill = "purple" stroke = "black" stroke-width = "1" />
	<polygon points = "400,270.096 437.5,335.048 475,270.096" fill = "purple" stroke = "black" stroke-width = "1" />
	<polygon points = "475,270.096 512.5,335.048 550,270.096" fill = "purple" stroke = "black" stroke-width = "1" />
	<polygon points = "550,270.096 587.5,335.048 625,270.096" fill = "purple" stroke = "black" stroke-width = "1" />
	<polygon points = "625,270.096 662.5,335.048 700,270.096" fill = "purple" stroke = "black" stroke-width = "1" />
	<polygon points = "700,270.096 737.5,335.048 775,270.096" fill = "purple" stroke = "black" stroke-width = "1" />
	<polygon points = "62.5,335.048 100,400 137.5,335.048" fill = "purple" stroke = "black" stroke-width = "1" />
	<polygon points = "137.5,335.048 175,400 212.5,335.048" fill = "purple" stroke = "black" stroke-width = "1" />
	<polygon points = "212.5,335.048 250,400 287.5,335.048" fill = "purple" stroke = "black" stroke-width = "1" />
	<polygon points = "287.5,335.048 325,400 362.5,335.048" fill = "purple" stroke = "black" stroke-width = "1" />
	<polygon points = "362.5,335.048 400,400 437.5,335.048" fill = "purple" stroke = "black" stroke-width = "1" />
	<polygon points = "437.5,335.048 475,400 512.5,335.048" fill = "purple" stroke = "black" stroke-width = "1" />
	<polygon points = "512.5,335.048 550,400 587.5,335.048" fill = "purple" stroke = "black" stroke-width = "1" />
	<polygon points = "587.5,335.048 625,400 662.5,335.048" fill = "purple" stroke = "black" stroke-width = "1" />
	<polygon points = "662.5,335.048 700,400 737.5,335.048" fill = "purple" stroke = "black" stroke-width = "1" />
	<polygon points = "25,400 62.5,464.952 100,400" fill = "purple" stroke = "black" stroke-width = "1" />
	<polygon points = "100,400 137.5,464.952 175,400" fill = "purple" stroke = "black" stroke-width = "1" />
	<polygon points = "175,400 212.5,464.952 250,400" fill = "purple" stroke = "black" stroke-width = "1" />
	<polygon points = "250,400 287.5,464.952 325,400" fill = "purple" stroke = "black" stroke-width = "1" />
	<polygon points = "325,400 362.5,464.952 400,400" fill = "purple" stroke = "black" stroke-width = "1" />
	<polygon points = "400,400 437.5,464.952 475,400" fill = "purple" stroke = "black" stroke-width = "1" />
	<polygon points = "475,400 512.5,464.952 550,400" fill = "purple" stroke = "black" stroke-width = "1" />
	<polygon points = "550,400 587.5,464.952 625,400" fill = "purple" stroke = "black" stroke-width = "1" />
	<polygon points = "625,400 662.5,464.952 700,400" fill = "purple" stroke = "black" stroke-width = "1" />
	<polygon points = "700,400 737.5,464.952 775,400" fill = "purple" stroke = "black" stroke-width = "1" />
	<polygon points = "62.5,464.952 100,529.904 137.5,464.952" fill = "purple" stroke = "black" stroke-width = "1" />
	<polygon points = "137.5,464.952 175,529.904 212.5,464.952" fill = "purple" stroke = "black" stroke-width = "1" />
	<polygon points = "212.5,464.952 250,529.904 287.5,464.952" fill = "purple" stroke = "black" stroke-width = "1" />
	<polygon points = "287.5,464.952 325,529.904 362.5,464.952" fill = "purple" stroke = "black" stroke-width = "1" />
	<polygon points = "362.5,464.952 400,529.904 437.5,464.952" fill = "purple" stroke = "black" stroke-width = "1" />
	<polygon points = "437.5,464.952 475,529.904 512.5,464.952" fill = "purple" stroke = "black" stroke-width = "1" />
	<polygon points = "512.5,464.952 550,529.904 587.5,464.952" fill = "purple" stroke = "black" stroke-width = "1" />
	<polygon points = "587.5,464.952 625,529.904 662.5,464.952" fill = "purple" stroke = "black" stroke-width = "1" />
	<polygon points = "662.5,464.952 700,529.904 737.5,464.952" fill = "purple" stroke = "black" stroke-width = "1" />
	<polygon points = "25,529.904 62.5,594.856 100,529.904" fill = "purple" stroke = "black" stroke-width = "1" />
	<polygon points = "100,529.904 137.5,594.856 175,529.904" fill = "purple" stroke = "black" stroke-width = "1" />
	<polygon points = "175,529.904 212.5,594.856 250,529.904" fill = "purple" stroke = "black" stroke-width = "1" />
	<polygon points = "250,529.904 287.5,594.856 325,529.904" fill = "purple" stroke = "black" stroke-width = "1" />
	<polygon points = "325,529.904 362.5,594.856 400,529.904" fill = "purple" stroke = "black" stroke-width = "1" />
	<polygon points = "400,529.904 437.5,594.856 475,529.904" fill = "purple" stroke = "black" stroke-width = "1" />
	<polygon points = "475,529.904 512.5,594.856 550,529.904" fill = "purple" stroke = "black" stroke-width = "1" />
	<polygon points = "550,529.904 587.5,594.856 625,529.904" fill = "purple" stroke = "black" stroke-width = "1" />
	<polygon points = "625,529.904 662.5,594.856 700,529.904" fill = "purple" stroke = "black" stroke-width = "1" />
	<polygon points = "700,529.904 737.5,594.856 775,529.904" fill = "purple" stroke = "black" stroke-width = "1" />
	<polygon points = "62.5,594.856 100,659.808 137.5,594.856" fill = "purple" stroke = "black" stroke-width = "1" />
	<polygon points = "137.5,594.856 175,659.808 212.5,594.856" fill = "purple" stroke = "black" stroke-width = "1" />
	<polygon points = "212.5,594.856 250,659.808 287.5,594.856" fill = "purple" stroke = "black" stroke-width = "1" />
	<polygon points = "287.5,594.856 325,659.808 362.5,594.856" fill = "purple" stroke = "black" stroke-width = "1" />
	<polygon points = "362.5,594.856 400,659.808 437.5,594.856" fill = "purple" stroke = "black" stroke-width = "1" />
	<polygon points = "437.5,594.856 475,659.808 512.5,594.856" fill = "purple" stroke = "black" stroke-width = "1" />
	<polygon points = "512.5,594.856 550,659.808 587.5,594.856" fill = "purple" stroke = "black" stroke-width = "1" />
	<polygon points = "587.5,594.856 625,659.808 662.5,594.856" fill = "purple" stroke = "black" stroke-width = "1" />
	<polygon points = "662.5,594.856 700,659.808 737.5,594.856" fill = "purple" stroke = "black" stroke-width = "1" />
	<polygon points = "175,659.808 212.5,724.76 250,659.808" fill = "purple" stroke = "black" stroke-width = "1" />
	<polygon points = "250,659.808 287.5,724.76 325,659.808" fill = "purple" stroke = "black" stroke-width = "1" />
	<polygon points = "325,659.808 362.5,724.76 400,659.808" fill = "purple" stroke = "black" stroke-width = "1" />
	<polygon points = "400,659.808 437.5,724.76 475,659.808" fill = "purple" stroke = "black" stroke-width = "1" />
	<polygon points = "475,659.808 512.5,724.76 550,659.808" fill = "purple" stroke = "black" stroke-width = "1" />
	<polygon points = "550,659.808 587.5,724.76 625,659.808" fill = "purple" stroke = "black" stroke-width = "1" />
	<polygon points = "287.5,724.76 325,789.711 362.5,724.76" fill = "purple" stroke = "black" stroke-width = "1" />
	<polygon points = "362.5,724.76 400,789.711 437.5,724.76" fill = "purple" stroke = "black" stroke-width = "1" />
	<polygon points = "437.5,724.76 475,789.711 512.5,724.76" fill = "purple" stroke = "black" stroke-width = "1" />
</svg>